<svg width="436" height="435" viewBox="0 0 436 435" fill="none" xmlns="http://www.w3.org/2000/svg">
<path d="M117.453 392.477L116.248 388.076L111.269 388.302C110.806 387.331 110.272 386.413 109.67 385.555L112.305 381.332L109.06 378.123L104.861 380.808C103.986 380.208 103.063 379.684 102.103 379.235L102.273 374.254L97.859 373.096L95.5675 377.515C94.5214 377.432 93.4563 377.442 92.3888 377.539L90.0475 373.139L85.6472 374.344L85.8726 379.323C84.9048 379.786 83.9844 380.319 83.1257 380.922L78.9033 378.286L75.6938 381.531L78.379 385.73C77.7789 386.605 77.2523 387.528 76.8063 388.489L71.8248 388.318L70.6672 392.733L75.0865 395.024C75.0035 396.07 75.013 397.135 75.1102 398.203L70.7099 400.544L71.915 404.944L76.8941 404.719C77.3566 405.689 77.8904 406.607 78.4929 407.466L75.8575 411.688L79.1025 414.898L83.3012 412.213C84.1765 412.813 85.0993 413.339 86.06 413.785L85.8892 418.767L90.3037 419.924L92.5952 415.505C93.6413 415.588 94.7064 415.579 95.7739 415.481L98.1151 419.882L102.515 418.677L102.29 413.698C103.26 413.235 104.178 412.701 105.037 412.099L109.259 414.734L112.469 411.489L109.784 407.29C110.384 406.415 110.91 405.492 111.356 404.532L116.338 404.702L117.495 400.288L113.076 397.996C113.159 396.95 113.15 395.885 113.052 394.818L117.453 392.477ZM97.1853 407.838C90.9276 409.551 84.4659 405.867 82.7532 399.612C81.0406 393.354 84.7245 386.893 90.9798 385.18C97.2375 383.467 103.699 387.151 105.412 393.406C107.125 399.664 103.441 406.126 97.1853 407.838Z" fill="#7510FA"/>
<path d="M190.42 346.889L188.358 339.357L179.84 339.744C179.05 338.086 178.137 336.513 177.102 335.042L181.614 327.817L176.063 322.325L168.878 326.92C167.381 325.896 165.804 324.994 164.158 324.23L164.452 315.705L156.899 313.724L152.98 321.286C151.189 321.147 149.37 321.161 147.541 321.324L143.534 313.795L136.003 315.857L136.39 324.375C134.731 325.165 133.159 326.078 131.688 327.112L124.462 322.601L118.971 328.151L123.566 335.337C122.541 336.833 121.64 338.411 120.876 340.057L112.35 339.763L110.37 347.316L117.932 351.235C117.792 353.026 117.806 354.845 117.97 356.674L110.441 360.68L112.502 368.212L121.02 367.825C121.81 369.483 122.724 371.056 123.758 372.527L119.249 379.752L124.799 385.244L131.984 380.649C133.481 381.676 135.059 382.575 136.705 383.339L136.411 391.864L143.964 393.845L147.882 386.283C149.673 386.423 151.493 386.409 153.322 386.245L157.328 393.774L164.86 391.713L164.473 383.194C166.131 382.404 167.704 381.491 169.175 380.457L176.4 384.966L181.892 379.415L177.295 372.23C178.322 370.734 179.221 369.156 179.985 367.51L188.51 367.804L190.491 360.251L182.928 356.332C183.068 354.541 183.054 352.722 182.89 350.893L190.42 346.886V346.889ZM155.739 373.177C145.031 376.109 133.975 369.806 131.043 359.098C128.111 348.39 134.414 337.334 145.121 334.402C155.829 331.47 166.886 337.773 169.818 348.481C172.75 359.188 166.447 370.245 155.739 373.177Z" fill="#7510FA"/>
<path d="M4.29086 185.849L93.6774 359.126C84.9599 342.225 107.692 311.689 149.202 279.475C154.179 275.613 155.673 268.736 152.784 263.136L75.6327 113.58C71.8515 106.25 62.3013 104.172 55.8515 109.313C16.8679 140.369 -4.14918 169.494 4.28849 185.847L4.29086 185.849Z" fill="white"/>
<path d="M93.6798 359.648C93.49 359.648 93.3098 359.546 93.2172 359.366L3.83066 186.089C-0.332424 178.022 2.44534 166.51 11.8627 152.801C20.8981 139.645 35.9991 124.468 55.5336 108.907C58.7217 106.369 62.8374 105.401 66.8321 106.258C70.8433 107.116 74.2236 109.699 76.1023 113.345L153.253 262.901C156.264 268.734 154.696 275.879 149.527 279.89C128.818 295.961 112.742 311.679 103.033 325.347C93.1152 339.312 90.0386 350.905 94.1353 358.873L94.1448 358.889C94.2776 359.145 94.1756 359.459 93.9218 359.591C93.8459 359.632 93.7628 359.651 93.6846 359.651L93.6798 359.648ZM4.75342 185.612L91.488 353.747C89.2487 336.473 110 309.243 148.884 279.067C153.657 275.364 155.101 268.767 152.324 263.378L75.1725 113.822C73.4361 110.456 70.3143 108.07 66.6091 107.278C62.9228 106.488 59.1203 107.38 56.1788 109.723C15.9831 141.745 -3.24066 170.115 4.75342 185.612Z" fill="#7510FA"/>
<path d="M2.88901 195.528L92.2756 368.805C83.558 351.903 106.29 321.367 147.8 289.153C152.777 285.292 154.271 278.415 151.382 272.814L74.2308 123.259C70.4496 115.929 60.8994 113.851 54.4496 118.991C15.466 150.047 -5.55103 179.172 2.88663 195.525L2.88901 195.528Z" fill="white"/>
<path d="M92.2779 369.327C92.0881 369.327 91.9078 369.225 91.8153 369.044L2.42636 195.767C-1.73672 187.7 1.04104 176.188 10.4584 162.479C19.4938 149.323 34.5948 134.147 54.1269 118.585C57.3151 116.047 61.4331 115.082 65.4254 115.936C69.4367 116.794 72.8169 119.378 74.6957 123.024L151.847 272.579C154.857 278.412 153.289 285.557 148.12 289.568C127.411 305.64 111.336 321.357 101.626 335.026C91.7015 349 88.6272 360.6 92.7381 368.567C92.8709 368.824 92.7689 369.137 92.5151 369.27C92.4392 369.31 92.3562 369.329 92.2779 369.329V369.327ZM3.35149 195.291L90.086 363.422C87.8467 346.149 108.598 318.919 147.482 288.743C152.255 285.04 153.699 278.443 150.922 273.054L73.7705 123.498C72.0341 120.132 68.9124 117.746 65.2071 116.953C61.5209 116.163 57.7183 117.055 54.7769 119.399C14.5812 151.42 -4.64258 179.791 3.35149 195.288V195.291Z" fill="#7510FA"/>
<path d="M208.137 39.8118L285.417 189.614C288.455 195.504 295.415 198.199 301.628 195.888C365.338 172.191 416.266 167.523 426.53 187.42L337.143 14.143C327.045 -5.4318 277.581 -1.22839 215.308 21.4824C207.888 24.189 204.517 32.7903 208.137 39.8118Z" fill="white"/>
<path d="M297.071 197.233C292.099 197.233 287.347 194.498 284.952 189.854L207.672 40.0513C205.879 36.5761 205.668 32.4937 207.091 28.8477C208.517 25.1994 211.446 22.3362 215.128 20.9936C246.208 9.65955 274.087 2.89661 295.754 1.43538C318.142 -0.073297 332.617 4.23686 337.603 13.9033L426.99 187.18C427.123 187.436 427.021 187.75 426.765 187.882C426.508 188.015 426.195 187.913 426.062 187.659C421.2 178.233 406.703 174.143 384.156 175.827C361.972 177.485 333.495 184.592 301.806 196.377C300.249 196.956 298.648 197.231 297.068 197.231L297.071 197.233ZM208.6 39.5745L285.879 189.377C288.794 195.027 295.489 197.618 301.445 195.402C361.761 172.966 408.053 168.308 423.417 182.526L336.678 14.3825C327.021 -4.33601 279.451 -1.35661 215.486 21.9733C212.087 23.2139 209.38 25.8565 208.064 29.2272C206.75 32.5933 206.944 36.3626 208.6 39.5721V39.5745Z" fill="#7510FA"/>
<path d="M206.735 49.49L284.015 199.292C287.053 205.182 294.013 207.877 300.226 205.567C363.936 181.869 414.864 177.201 425.128 197.098L335.741 23.8212C325.643 4.24643 276.18 8.44983 213.906 31.1606C206.486 33.8672 203.116 42.4685 206.735 49.49Z" fill="white"/>
<path d="M295.671 206.912C290.699 206.912 285.948 204.177 283.552 199.532L206.273 49.7296C204.48 46.2545 204.268 42.172 205.692 38.526C207.117 34.8777 210.047 32.0145 213.729 30.6719C244.808 19.3379 272.688 12.575 294.355 11.1137C316.752 9.60505 331.22 13.9152 336.204 23.5816L425.591 196.859C425.723 197.115 425.621 197.428 425.365 197.561C425.109 197.694 424.796 197.592 424.663 197.338C419.8 187.911 405.309 183.821 382.757 185.506C360.573 187.164 332.095 194.271 300.406 206.055C298.85 206.634 297.249 206.909 295.669 206.909L295.671 206.912ZM207.2 49.2528L284.48 199.055C287.395 204.706 294.087 207.296 300.046 205.08C360.362 182.647 406.654 177.986 422.018 192.204L335.279 24.0608C325.622 5.34233 278.054 8.32172 214.087 31.6516C210.687 32.8922 207.981 35.5372 206.664 38.9056C205.35 42.2716 205.545 46.041 207.2 49.2504V49.2528Z" fill="#7510FA"/>
<path d="M297.934 106.336C296.115 106.943 294.239 107.489 292.298 107.958C279.923 110.957 277.399 107.965 245.036 106.839C205.504 105.46 192.13 109.325 182.813 113.405C177.499 115.732 173.293 118.222 165.916 122.587C140.823 137.439 134.4 146.802 127.867 144.686C126.37 144.202 124.869 143.108 123.514 141.011C113.473 148.579 102.032 146.904 95.772 145.073C95.7743 146.489 95.8336 147.931 95.9641 149.399C96.3389 153.645 96.9936 161.08 101.562 167.347C111.397 180.84 135.657 183.836 161.563 175.009C159.924 178.562 146.704 208.468 162.284 236.283C178.379 265.017 213.593 270.788 236.738 266.843C274.488 260.41 304.664 223.948 299.507 202.25C298.62 198.517 294.711 193.122 286.93 182.483C277.729 169.904 269.405 160.102 263.527 153.508C269.848 153.121 291.684 151.012 310.706 133.489C312.433 131.898 314.027 130.275 315.509 128.636C304.683 125.011 299.936 113.846 297.93 106.336H297.934Z" fill="white"/>
<path d="M223.253 268.471C214.205 268.471 204.994 267.057 196.706 264.31C181.19 259.17 169.13 249.565 161.831 236.535C147.394 210.762 157.333 183.425 160.605 175.877C134.746 184.367 110.951 181.11 101.142 167.653C96.4883 161.267 95.836 153.866 95.447 149.444C95.3212 148.028 95.2572 146.558 95.2524 145.075C95.2524 144.911 95.3284 144.755 95.4612 144.658C95.5917 144.558 95.7625 144.527 95.9214 144.575C101.842 146.306 113.259 148.092 123.203 140.596C123.319 140.509 123.467 140.475 123.609 140.499C123.751 140.525 123.877 140.608 123.955 140.729C125.118 142.527 126.489 143.692 128.031 144.193C131.641 145.362 135.408 142.641 142.916 137.221C148.175 133.425 155.374 128.226 165.652 122.141C173.139 117.71 177.262 115.269 182.606 112.93C191.599 108.993 204.582 104.91 245.057 106.322C258.026 106.775 266.19 107.522 272.152 108.07C281.125 108.893 284.84 109.235 292.177 107.455C294.02 107.009 295.901 106.466 297.771 105.845C297.908 105.8 298.055 105.812 298.183 105.88C298.309 105.949 298.402 106.065 298.44 106.205C300.603 114.306 305.352 124.687 315.68 128.145C315.846 128.202 315.974 128.337 316.019 128.508C316.064 128.679 316.019 128.859 315.901 128.99C314.349 130.702 312.722 132.349 311.064 133.876C294.193 149.418 275.136 153.162 264.627 153.959C272.56 162.911 280.203 172.4 287.357 182.178C295.493 193.303 299.128 198.379 300.019 202.132C301.938 210.207 299.175 220.43 292.239 230.92C280.015 249.404 258.265 263.705 236.831 267.358C232.445 268.106 227.871 268.473 223.255 268.473L223.253 268.471ZM161.565 174.487C161.71 174.487 161.852 174.549 161.952 174.66C162.092 174.814 162.125 175.037 162.037 175.227C159.521 180.678 147.731 209.234 162.74 236.027C177.81 262.932 211.62 270.594 236.65 266.329C257.814 262.721 279.292 248.595 291.364 230.341C298.141 220.096 300.852 210.162 299.002 202.369C298.122 198.661 293.997 193.025 286.51 182.79C279.166 172.748 271.302 163.013 263.14 153.854C263.007 153.705 262.971 153.494 263.047 153.309C263.123 153.124 263.299 153 263.498 152.988C273.606 152.372 293.135 148.968 310.355 133.105C311.804 131.77 313.227 130.346 314.599 128.864C304.572 125.106 299.818 115.07 297.576 107.002C295.852 107.562 294.12 108.056 292.421 108.466C284.916 110.285 280.888 109.915 272.054 109.104C266.105 108.558 257.959 107.811 245.017 107.358C204.764 105.954 191.91 109.989 183.021 113.882C177.736 116.197 173.632 118.626 166.181 123.036C155.943 129.096 148.765 134.279 143.523 138.063C135.73 143.69 131.819 146.513 127.708 145.182C126.071 144.65 124.619 143.5 123.388 141.754C113.553 148.878 102.48 147.452 96.3009 145.763C96.3199 146.98 96.3816 148.185 96.4836 149.352C96.8631 153.667 97.4988 160.888 101.982 167.039C111.663 180.32 135.541 183.323 161.395 174.513C161.449 174.494 161.506 174.485 161.563 174.485L161.565 174.487Z" fill="#7510FA"/>
<path d="M346.2 79.3646L342.82 81.5232L347.988 72.2197C348.24 71.7666 348.256 71.2211 348.036 70.7537C347.531 69.6887 346.086 69.5131 345.341 70.4264L338.474 78.8475L343.201 66.9607C343.59 65.9834 343.22 64.8661 342.324 64.3158C341.192 63.6184 339.707 64.0952 339.19 65.3192L334.671 76.0436L336.234 66.6927C336.419 65.5778 335.592 64.4913 334.463 64.5008C333.76 64.5079 333.082 64.9136 332.814 66.287C332.173 69.5867 328.829 82.7828 328.829 82.7828C328.829 82.7828 327.377 82.2609 325.503 79.7228C323.629 77.1822 322.863 78.5865 322.863 78.5865C321.717 82.4602 324.495 86.6921 326.521 89.1283C319.668 95.367 310.165 102.258 297.934 106.333C299.941 113.843 304.685 125.009 315.514 128.634C327.367 115.537 331.732 101.423 333.367 94.3137C338.144 92.3496 346.231 83.5158 348.026 81.509C348.261 81.248 348.387 80.9112 348.387 80.5625C348.387 79.4381 347.144 78.7573 346.197 79.3622L346.2 79.3646Z" fill="white"/>
<path d="M315.514 129.156C315.459 129.156 315.403 129.146 315.348 129.129C304.581 125.526 299.661 114.818 297.431 106.471C297.36 106.205 297.51 105.93 297.771 105.842C307.7 102.533 317.127 96.8946 325.804 89.0761C323.539 86.2509 321.243 82.2325 322.365 78.4418C322.377 78.4062 322.388 78.373 322.407 78.3398C322.441 78.2781 322.758 77.7325 323.456 77.6851C324.224 77.6329 325.026 78.1999 325.925 79.4168C327.012 80.8898 327.944 81.6466 328.492 82.0071C329.173 79.3076 331.758 69.0197 332.306 66.1921C332.676 64.2826 333.815 63.9884 334.46 63.9837C334.467 63.9837 334.472 63.9837 334.479 63.9837C335.134 63.9837 335.76 64.2755 336.197 64.7878C336.669 65.3405 336.87 66.0664 336.752 66.7828L335.921 71.7453L338.713 65.1199C339.019 64.3964 339.622 63.8437 340.369 63.6041C341.119 63.3646 341.93 63.4642 342.599 63.8746C343.714 64.5601 344.169 65.9407 343.685 67.1576L340.208 75.9013L344.938 70.1014C345.403 69.5321 346.117 69.2474 346.84 69.3352C347.569 69.423 348.192 69.8713 348.506 70.5355C348.8 71.1546 348.776 71.8805 348.444 72.4783L344.276 79.9789L345.92 78.9281C346.527 78.5391 347.267 78.5154 347.901 78.8617C348.534 79.208 348.911 79.8461 348.911 80.5672C348.911 81.0464 348.736 81.5066 348.418 81.8624C346.186 84.3555 338.626 92.5441 333.817 94.6956C331.718 103.677 326.91 116.83 315.903 128.99C315.803 129.101 315.661 129.16 315.516 129.16L315.514 129.156ZM298.568 106.673C300.767 114.614 305.449 124.537 315.357 128.031C326.155 115.99 330.836 103.003 332.859 94.1999C332.897 94.0362 333.013 93.8986 333.17 93.8346C337.874 91.8989 346.048 82.9394 347.64 81.1627C347.787 80.999 347.867 80.7855 347.867 80.5625C347.867 80.228 347.692 79.9315 347.398 79.7702C347.104 79.6089 346.762 79.6208 346.477 79.801L343.097 81.9597C342.896 82.0878 342.635 82.0641 342.459 81.9004C342.286 81.7367 342.246 81.4758 342.362 81.267L347.531 71.9635C347.699 71.6575 347.713 71.2875 347.564 70.972C347.4 70.628 347.092 70.405 346.715 70.36C346.335 70.3149 345.984 70.4572 345.744 70.7514L338.877 79.1724C338.716 79.3717 338.431 79.4239 338.208 79.2934C337.985 79.1629 337.893 78.8901 337.988 78.6529L342.715 66.7662C343.012 66.0214 342.732 65.1769 342.049 64.757C341.638 64.5056 341.14 64.4439 340.682 64.5909C340.224 64.738 339.854 65.0749 339.667 65.5185L335.148 76.2428C335.046 76.4872 334.778 76.6153 334.522 76.5417C334.268 76.4682 334.109 76.2168 334.154 75.9558L335.717 66.6049C335.786 66.1993 335.665 65.7723 335.4 65.4592C335.155 65.1745 334.802 65.0156 334.465 65.0203C334.225 65.0203 333.587 65.0274 333.324 66.3843C332.688 69.6602 329.469 82.3701 329.334 82.9085C329.298 83.0509 329.204 83.1718 329.073 83.2406C328.943 83.3094 328.791 83.3213 328.653 83.2715C328.589 83.2477 327.028 82.6666 325.083 80.0288C324.158 78.7739 323.646 78.7099 323.522 78.717C323.43 78.7241 323.368 78.7763 323.337 78.8071C322.303 82.4981 325.131 86.6399 326.917 88.789C327.095 89.0025 327.073 89.3204 326.867 89.5078C318.119 97.471 308.597 103.242 298.563 106.665L298.568 106.673Z" fill="#7510FA"/>
<path d="M118.291 111.108C120.516 107.479 119.878 98.7568 117.392 94.5201C114.875 90.2313 106.228 77.9674 106.228 77.9674C101.951 81.3074 108.325 91.1659 108.325 91.1659C100.934 95.8983 105.078 100.923 105.078 100.923C102.096 107.123 105.896 109.237 108.169 109.927C103.235 116.552 95.734 129.101 95.7743 145.075C102.037 146.906 113.475 148.581 123.516 141.014C120.696 136.647 118.509 127.903 118.291 111.108Z" fill="white"/>
<path d="M106.245 147.139C102.023 147.139 98.2889 146.351 95.6274 145.573C95.4068 145.509 95.2526 145.305 95.2526 145.075C95.2147 130.059 101.698 117.902 107.327 110.186C106.043 109.685 104.601 108.779 103.89 107.161C103.159 105.498 103.356 103.42 104.473 100.979C104.048 100.351 103.138 98.7045 103.467 96.598C103.79 94.5485 105.182 92.6698 107.614 91.0117C106.392 88.993 101.797 80.7665 105.906 77.557C106.017 77.4692 106.162 77.4312 106.302 77.4526C106.442 77.4739 106.57 77.5522 106.651 77.6685C106.736 77.7918 115.34 90.0012 117.838 94.2591C120.243 98.3582 121.121 107.254 118.81 111.251C119.009 125.842 120.739 135.762 123.951 140.734C124.1 140.964 124.046 141.268 123.827 141.431C118.006 145.817 111.715 147.141 106.24 147.141L106.245 147.139ZM96.2964 144.681C102.236 146.353 113.174 147.895 122.821 140.879C119.657 135.603 117.959 125.595 117.771 111.113C117.771 111.016 117.797 110.919 117.847 110.833C119.88 107.517 119.399 98.9654 116.943 94.781C114.752 91.0449 107.777 81.0748 106.145 78.7525C103.147 82.0996 108.703 90.7911 108.762 90.8812C108.838 90.9975 108.864 91.1398 108.833 91.275C108.805 91.4102 108.722 91.5288 108.605 91.6023C106.172 93.1608 104.791 94.8949 104.497 96.7546C104.153 98.9488 105.465 100.571 105.476 100.588C105.605 100.745 105.633 100.963 105.545 101.145C104.449 103.423 104.215 105.306 104.843 106.739C105.526 108.293 107.109 109.056 108.318 109.424C108.48 109.474 108.608 109.6 108.662 109.759C108.714 109.92 108.686 110.098 108.586 110.233C103.007 117.722 96.3723 129.753 96.2964 144.679V144.681Z" fill="#7510FA"/>
<path d="M112.934 107.878C112.813 107.878 112.692 107.835 112.595 107.749C112.446 107.621 108.978 104.564 110.579 101.134C111.855 98.3962 111.66 98.0783 110.579 96.3135L110.436 96.081C109.053 93.8109 110.394 91.7969 110.451 91.7115C110.536 91.5858 110.671 91.5052 110.823 91.4862C110.975 91.4696 111.124 91.5194 111.236 91.6214L116.222 96.2328C116.433 96.4273 116.447 96.7571 116.251 96.9682C116.054 97.1793 115.726 97.1912 115.515 96.9966L111.044 92.862C110.833 93.4574 110.671 94.4585 111.326 95.5378L111.466 95.7679C112.683 97.7557 112.968 98.4674 111.521 101.572C110.254 104.286 113.245 106.936 113.276 106.962C113.492 107.152 113.515 107.479 113.328 107.697C113.226 107.816 113.081 107.878 112.934 107.878Z" fill="#7510FA"/>
<path d="M108.088 103.805C107.502 103.805 106.921 103.577 106.489 103.133L104.701 101.285C104.501 101.079 104.506 100.749 104.713 100.55C104.919 100.351 105.249 100.356 105.45 100.562L107.239 102.41C107.661 102.846 108.361 102.887 108.833 102.502C109.056 102.32 109.383 102.353 109.566 102.576C109.749 102.799 109.715 103.126 109.492 103.309C109.084 103.643 108.586 103.807 108.088 103.807V103.805Z" fill="#7510FA"/>
<path d="M279.121 372.495C279.228 373.096 297.578 399.597 297.578 399.597L282.767 403.471L268.169 380.644L279.121 372.495Z" fill="white"/>
<path d="M282.769 403.99C282.593 403.99 282.427 403.903 282.33 403.751L267.732 380.924C267.585 380.694 267.642 380.388 267.86 380.226L278.812 372.078C278.957 371.971 279.147 371.945 279.315 372.012C279.457 372.069 279.569 372.185 279.616 372.33C280.117 373.352 290.87 388.989 298.01 399.298C298.107 399.438 298.128 399.616 298.069 399.775C298.01 399.934 297.877 400.055 297.713 400.098L282.902 403.971C282.859 403.983 282.814 403.988 282.769 403.988V403.99ZM268.871 380.772L283.004 402.871L296.729 399.282C289.335 388.602 280.838 376.255 278.981 373.252L268.871 380.772Z" fill="#7510FA"/>
<path d="M282.689 396.044C282.689 396.044 284.411 388.296 292.867 390.514C292.867 390.514 310.893 408.683 319.264 424.842C321.632 429.413 317.44 434.655 312.452 433.391C300.776 430.433 282.015 423.2 268.947 405.929C268.947 405.929 270.562 397.581 274.73 393.119L282.691 396.044H282.689Z" fill="white"/>
<path d="M313.953 434.1C313.415 434.1 312.867 434.033 312.324 433.896C299.414 430.625 281.339 423.171 268.529 406.241C268.439 406.123 268.406 405.973 268.434 405.829C268.501 405.482 270.126 397.282 274.348 392.763C274.491 392.609 274.714 392.559 274.908 392.63L282.345 395.363C282.696 394.31 283.671 392.051 285.91 390.685C287.836 389.511 290.22 389.283 292.998 390.011C293.088 390.035 293.169 390.082 293.235 390.149C293.415 390.332 311.413 408.559 319.725 424.604C320.911 426.896 320.647 429.581 319.034 431.614C317.763 433.217 315.908 434.102 313.951 434.102L313.953 434.1ZM269.504 405.8C282.122 422.355 299.879 429.666 312.58 432.883C314.696 433.419 316.857 432.684 318.221 430.964C319.575 429.256 319.798 427.002 318.802 425.081C310.881 409.795 294.053 392.469 292.597 390.984C290.168 390.374 288.104 390.571 286.463 391.57C283.91 393.121 283.206 396.129 283.199 396.16C283.165 396.307 283.071 396.43 282.94 396.504C282.807 396.575 282.651 396.587 282.511 396.535L274.88 393.731C271.4 397.673 269.791 404.484 269.507 405.805L269.504 405.8Z" fill="#7510FA"/>
<path d="M312.307 428.276C305.94 428.276 292.196 425.453 272.296 406.263C272.09 406.063 272.083 405.734 272.282 405.527C272.481 405.321 272.811 405.314 273.02 405.513C300.093 431.621 315.827 426.855 315.984 426.805C316.257 426.715 316.551 426.865 316.641 427.135C316.731 427.408 316.584 427.702 316.311 427.792C316.128 427.854 314.769 428.276 312.307 428.276Z" fill="#7510FA"/>
<path d="M300.038 413.942C299.891 413.942 299.744 413.88 299.642 413.759C299.457 413.541 299.483 413.211 299.701 413.023L306.165 407.534C306.386 407.349 306.713 407.375 306.901 407.594C307.086 407.812 307.06 408.142 306.841 408.327L300.377 413.816C300.28 413.899 300.159 413.939 300.041 413.939L300.038 413.942Z" fill="#7510FA"/>
<path d="M295.47 409.173C295.315 409.173 295.164 409.104 295.062 408.976C294.884 408.751 294.922 408.424 295.147 408.246L302.211 402.65C302.436 402.472 302.764 402.51 302.944 402.735C303.122 402.961 303.084 403.288 302.859 403.466L295.794 409.062C295.7 409.138 295.583 409.173 295.472 409.173H295.47Z" fill="#7510FA"/>
<path d="M233.792 312.158L221.5 321.597L232.293 336.261L243.802 325.29L233.792 312.158Z" fill="white"/>
<path d="M232.295 336.783C232.281 336.783 232.264 336.783 232.25 336.783C232.101 336.771 231.965 336.693 231.875 336.572L221.082 321.908C220.914 321.68 220.959 321.357 221.184 321.187L233.476 311.748C233.586 311.665 233.725 311.627 233.863 311.646C234.001 311.665 234.124 311.736 234.209 311.848L244.22 324.977C244.381 325.188 244.357 325.487 244.165 325.67L232.658 336.641C232.561 336.734 232.433 336.786 232.297 336.786L232.295 336.783ZM222.223 321.699L232.364 335.476L243.105 325.233L233.695 312.889L222.223 321.697V321.699Z" fill="#7510FA"/>
<path d="M239.606 334.542L228.182 325.288L226.03 317.534C220.031 317.386 213.297 321.856 209.603 324.731C207.893 326.061 207.336 328.4 208.292 330.345C214.386 342.726 228.127 362.039 234.779 371.134C236.454 373.426 240.085 372.686 240.671 369.905C243.608 355.983 239.606 334.539 239.606 334.539V334.542Z" fill="white"/>
<path d="M237.433 373.018C236.225 373.018 235.094 372.453 234.356 371.445C227.022 361.416 213.823 342.771 207.822 330.578C206.766 328.431 207.38 325.8 209.28 324.32C212.813 321.571 219.602 317.009 225.741 317.009C225.84 317.009 225.942 317.009 226.042 317.014C226.272 317.019 226.469 317.175 226.531 317.396L228.637 324.989L239.933 334.138C240.03 334.217 240.094 334.326 240.118 334.447C240.159 334.663 244.106 356.154 241.181 370.017C240.87 371.495 239.753 372.61 238.268 372.927C237.988 372.987 237.708 373.018 237.433 373.018ZM225.632 318.053C219.832 318.105 213.327 322.494 209.921 325.143C208.408 326.322 207.919 328.412 208.756 330.118C214.722 342.239 227.883 360.827 235.198 370.831C235.858 371.732 236.951 372.147 238.047 371.91C239.124 371.677 239.933 370.871 240.159 369.801C242.896 356.823 239.506 336.966 239.124 334.824L227.85 325.694C227.767 325.625 227.705 325.532 227.676 325.428L225.629 318.053H225.632Z" fill="#7510FA"/>
<path d="M235.775 366.11C235.611 366.11 235.447 366.032 235.345 365.887L217.146 339.658C215.899 337.863 215.346 335.602 215.583 333.299C216.036 328.932 214.271 324.448 214.255 324.403C214.148 324.135 214.279 323.834 214.544 323.727C214.812 323.62 215.116 323.751 215.22 324.019C215.296 324.211 217.097 328.787 216.617 333.408C216.404 335.465 216.895 337.474 218 339.065L236.199 365.294C236.363 365.531 236.304 365.854 236.069 366.02C235.979 366.082 235.874 366.112 235.772 366.112L235.775 366.11Z" fill="#7510FA"/>
<path d="M246.039 187.617C246.039 187.617 281.137 215.33 299.709 241.269C304.899 248.519 305.632 258.059 301.694 266.058C293.145 283.424 274.656 314.566 246.039 330.098L222.007 299.391C222.007 299.391 243.022 276.156 258.471 265.572L219.077 221.417L209.283 199.242L246.041 187.617H246.039Z" fill="#7510FA"/>
<path d="M262.929 394.601C264.174 396.796 292.481 376.101 292.481 376.101C292.481 376.101 270.823 350.753 236.406 221.91C236.005 220.411 229.66 188.902 229.66 188.902L182.627 213.553C182.627 213.553 190.892 267.773 262.929 394.599V394.601Z" fill="#7510FA"/>
<path d="M242.061 243.094C241.831 243.094 241.622 242.942 241.558 242.709L237.134 226.546C236.311 223.54 236.849 220.34 238.607 217.769L241.316 213.81C241.477 213.572 241.802 213.511 242.04 213.674C242.277 213.836 242.339 214.161 242.175 214.398L239.466 218.357C237.879 220.677 237.395 223.559 238.137 226.27L242.561 242.434C242.637 242.712 242.474 242.999 242.196 243.075C242.151 243.086 242.104 243.094 242.059 243.094H242.061Z" fill="white"/>
<path d="M270.79 327.655C270.588 327.655 270.396 327.537 270.311 327.34C270.204 327.088 259.522 302.029 255.556 289.438C255.471 289.163 255.623 288.871 255.895 288.786C256.173 288.7 256.462 288.852 256.55 289.125C260.5 301.666 271.162 326.678 271.269 326.93C271.383 327.195 271.26 327.501 270.994 327.613C270.928 327.641 270.859 327.655 270.79 327.655Z" fill="white"/>
<path d="M171.557 130.109C172.451 148.882 175.106 195.722 180.011 214.536C180.642 216.953 183.311 218.212 185.588 217.185C196.796 212.128 228.626 198.623 252.847 196.797C256.299 196.536 258.585 193.103 257.509 189.813C252.869 175.633 242.498 142.349 239.578 119.601C238.747 113.134 233.609 108.15 227.224 107.652C215.434 106.734 196.391 107.408 178.457 117.478C173.976 119.994 171.308 124.902 171.557 130.107V130.109Z" fill="white"/>
<path d="M183.923 218.065C183.247 218.065 182.573 217.916 181.947 217.617C180.735 217.038 179.847 215.964 179.508 214.669C174.605 195.867 171.951 149.288 171.037 130.135C170.781 124.76 173.595 119.615 178.204 117.027C195.928 107.073 214.668 106.153 227.266 107.135C233.844 107.648 239.241 112.861 240.097 119.537C243.031 142.402 253.599 176.188 258.007 189.654C258.571 191.379 258.317 193.232 257.309 194.74C256.304 196.244 254.693 197.184 252.89 197.319C229.036 199.117 198.03 212.145 185.806 217.662C185.206 217.933 184.566 218.068 183.923 218.068V218.065ZM172.079 130.083C172.992 149.202 175.639 195.696 180.516 214.403C180.777 215.401 181.461 216.229 182.395 216.675C183.337 217.126 184.423 217.138 185.375 216.709C197.648 211.17 228.789 198.087 252.809 196.277C254.29 196.166 255.616 195.393 256.441 194.157C257.271 192.916 257.48 191.393 257.015 189.975C252.598 176.482 242.009 142.617 239.063 119.665C238.268 113.478 233.275 108.644 227.186 108.172C214.727 107.202 196.21 108.108 178.714 117.933C174.444 120.331 171.839 125.099 172.076 130.083H172.079Z" fill="#7510FA"/>
<path d="M192.925 83.5159C192.925 83.5159 189.267 76.0816 187.979 74.7722C186.689 73.4628 185.693 72.0822 189.486 69.544C193.279 67.0058 203.187 60.231 209.26 60.2761C215.332 60.3188 219.586 64.1545 217.716 66.9204C215.847 69.6863 214.991 70.8511 216.431 71.029C217.871 71.2069 218.665 72.8152 214.585 75.1802C210.503 77.5452 196.275 87.807 192.925 83.5159Z" fill="#7510FA"/>
<path d="M213.715 109.346L211.594 98.0759C217.977 94.8711 215.406 90.4258 214.452 86.8771C213.425 83.0579 210.261 74.7673 210.261 74.7673C205.023 77.844 194.754 76.926 194.754 76.926C194.754 76.926 196.227 79.272 195.38 80.4296C194.536 81.5872 195.062 86.0278 195.062 86.0278C195.062 86.0278 193.229 84.3033 191.267 85.6222C190.164 86.3647 191.424 89.5315 192.327 91.3082C193.231 93.0849 195.176 93.4336 195.176 93.4336C195.176 93.4336 195.497 93.2415 196.151 94.8071L192.667 113.165L185.825 116.004L201.047 118.059C205.851 118.706 210.714 117.416 214.561 114.47L220.015 110.295L213.715 109.346Z" fill="white"/>
<path d="M203.448 118.742C202.625 118.742 201.799 118.687 200.979 118.576L185.757 116.522C185.524 116.491 185.339 116.306 185.311 116.073C185.28 115.841 185.41 115.615 185.629 115.525L192.209 112.793L195.61 94.8665C195.347 94.2639 195.172 94.0315 195.098 93.9484C195.093 93.9484 195.089 93.9484 195.084 93.9484C194.994 93.9318 192.873 93.5309 191.862 91.5455C191.07 89.9894 189.395 86.2533 190.975 85.1905C192.235 84.3437 193.521 84.5548 194.439 84.9937C194.327 83.4992 194.27 81.0654 194.958 80.1237C195.475 79.4144 194.643 77.7373 194.311 77.2036C194.206 77.0352 194.206 76.824 194.311 76.6556C194.415 76.4872 194.6 76.3923 194.802 76.4089C194.904 76.4184 204.968 77.2747 210 74.3191C210.133 74.2408 210.292 74.2266 210.436 74.2764C210.581 74.3262 210.695 74.44 210.749 74.5824C210.88 74.9216 213.935 82.9418 214.958 86.7419C215.083 87.2068 215.235 87.686 215.396 88.1937C216.424 91.4126 217.697 95.4026 212.18 98.3606L214.16 108.886L220.096 109.78C220.302 109.811 220.47 109.963 220.523 110.164C220.575 110.366 220.501 110.582 220.335 110.708L214.882 114.882C211.61 117.387 207.549 118.74 203.45 118.74L203.448 118.742ZM187.808 115.748L201.119 117.544C205.751 118.17 210.536 116.899 214.246 114.057L218.724 110.629L213.636 109.863C213.418 109.83 213.242 109.661 213.202 109.443L211.081 98.1732C211.039 97.9455 211.153 97.7154 211.359 97.611C216.485 95.0372 215.425 91.721 214.402 88.5115C214.236 87.992 214.08 87.5034 213.949 87.0123C213.095 83.8337 210.711 77.4361 209.986 75.5123C205.486 77.8109 198.239 77.6543 195.651 77.512C196.059 78.411 196.486 79.8011 195.8 80.7381C195.302 81.4212 195.371 84.2061 195.58 85.9662C195.606 86.1845 195.492 86.3932 195.297 86.4928C195.1 86.5901 194.866 86.5569 194.707 86.4074C194.645 86.3505 193.143 84.9889 191.559 86.054C191.087 86.3719 191.424 88.3811 192.795 91.071C193.476 92.4089 194.877 92.8241 195.205 92.9047C195.276 92.9047 195.357 92.9142 195.433 92.9403C195.705 93.0304 196.09 93.3009 196.635 94.6055C196.676 94.7004 196.685 94.8024 196.666 94.9044L193.181 113.262C193.148 113.435 193.032 113.58 192.868 113.647L187.808 115.746V115.748ZM195.442 93.882C195.421 93.8939 195.399 93.9057 195.378 93.9152C195.399 93.9057 195.421 93.8963 195.442 93.882Z" fill="#7510FA"/>
<path d="M205.716 99.9309C199.892 99.9309 197.724 95.4333 197.696 95.374C197.575 95.1131 197.688 94.8023 197.949 94.6837C198.21 94.5628 198.519 94.6766 198.64 94.9375C198.77 95.2151 201.894 101.577 211.39 97.5967C211.656 97.4852 211.962 97.6109 212.071 97.8766C212.182 98.1423 212.056 98.4459 211.791 98.5574C209.428 99.549 207.414 99.9309 205.711 99.9309H205.716Z" fill="#7510FA"/>
<path d="M190.491 79.9007L192.441 85.5985C192.441 85.5985 204.85 93.0162 219.623 90.0131C221.649 89.6003 222.937 87.5983 222.48 85.582L221.341 75.5597C220.888 73.5624 218.893 72.3194 216.9 72.789L190.489 79.9007H190.491Z" fill="white"/>
<path d="M212.476 91.2418C201.024 91.2418 192.277 86.1085 192.173 86.0468C192.066 85.9828 191.988 85.8855 191.948 85.7693L189.998 80.0714C189.95 79.9338 189.962 79.7844 190.031 79.6587C190.1 79.5306 190.216 79.4381 190.356 79.4001L216.767 72.2885C217.882 72.0252 219.016 72.2102 219.977 72.8103C220.935 73.4081 221.602 74.3451 221.853 75.4481C221.858 75.4671 221.86 75.4861 221.863 75.5051L222.999 85.4989C223.243 86.6043 223.039 87.7358 222.423 88.687C221.803 89.6453 220.847 90.2977 219.732 90.5254C217.237 91.033 214.803 91.2442 212.481 91.2442L212.476 91.2418ZM192.871 85.245C194.37 86.0824 206.024 92.2476 219.521 89.503C220.361 89.3322 221.08 88.8412 221.545 88.1201C222.012 87.3966 222.164 86.5355 221.974 85.6981C221.969 85.6791 221.967 85.6602 221.965 85.6412L220.828 75.6474C220.636 74.829 220.138 74.1364 219.424 73.6904C218.703 73.2397 217.849 73.0997 217.021 73.2966L191.165 80.2588L192.871 85.245Z" fill="#7510FA"/>
<path d="M204.529 86.6921C204.397 86.6921 204.264 86.6422 204.162 86.5402C203.958 86.3362 203.958 86.0065 204.162 85.8025L208.894 81.0701C209.098 80.8661 209.428 80.8661 209.632 81.0701C209.836 81.2741 209.836 81.6038 209.632 81.8078L204.9 86.5402C204.798 86.6422 204.665 86.6921 204.532 86.6921H204.529Z" fill="#7510FA"/>
<path d="M211.594 85.774C211.461 85.774 211.328 85.7242 211.226 85.6222C211.022 85.4182 211.022 85.0884 211.226 84.8844L218.314 77.7989C218.518 77.5949 218.848 77.5949 219.052 77.7989C219.256 78.0029 219.256 78.3326 219.052 78.5366L211.966 85.6222C211.864 85.7242 211.731 85.774 211.598 85.774H211.594Z" fill="#7510FA"/>
<path d="M124.007 372.095C124.007 372.095 123.998 372.095 123.993 372.095C107.704 371.661 97.3494 367.379 93.2147 359.366L3.82817 186.089C3.69533 185.833 3.79733 185.52 4.05115 185.387C4.30734 185.254 4.62046 185.356 4.7533 185.61C9.63514 195.075 24.219 199.16 46.925 197.423C69.2657 195.713 97.9163 188.514 129.783 176.605C136.243 174.191 143.497 176.994 146.659 183.122L223.94 332.929C225.731 336.399 225.945 340.479 224.526 344.12C223.105 347.766 220.183 350.632 216.506 351.979C207.274 355.364 198.184 358.391 189.49 360.974C189.215 361.057 188.925 360.899 188.842 360.623C188.759 360.348 188.918 360.056 189.193 359.976C197.866 357.397 206.935 354.38 216.146 351.002C219.54 349.757 222.242 347.112 223.554 343.743C224.863 340.382 224.666 336.615 223.013 333.408L145.731 183.601C142.811 177.941 136.112 175.353 130.146 177.583C92.4533 191.671 60.2018 198.851 37.4721 198.854C23.588 198.854 13.2574 196.176 7.40533 190.755L94.1399 358.889C98.0302 366.43 108.363 370.639 124.019 371.054C124.306 371.061 124.534 371.3 124.527 371.587C124.52 371.87 124.287 372.095 124.007 372.095Z" fill="#7510FA"/>
<path d="M167.361 366.791C167.123 366.791 166.908 366.627 166.853 366.385C166.789 366.105 166.965 365.825 167.244 365.761C174.226 364.177 181.61 362.229 189.191 359.976C189.467 359.893 189.756 360.052 189.839 360.327C189.922 360.602 189.763 360.894 189.488 360.974C181.885 363.235 174.479 365.187 167.477 366.777C167.439 366.786 167.399 366.791 167.361 366.791Z" fill="white"/>
<path d="M139.901 371.428C139.635 371.428 139.41 371.227 139.383 370.959C139.355 370.672 139.564 370.418 139.851 370.39C148.144 369.564 157.359 368.008 167.249 365.761C167.531 365.697 167.809 365.873 167.873 366.153C167.937 366.433 167.761 366.713 167.481 366.777C157.552 369.033 148.291 370.596 139.955 371.424C139.939 371.424 139.92 371.426 139.903 371.426L139.901 371.428Z" fill="#7510FA"/>
<path d="M126.686 372.13C125.772 372.13 124.876 372.119 123.996 372.095C123.709 372.088 123.481 371.848 123.488 371.561C123.495 371.274 123.735 371.044 124.022 371.053C128.813 371.182 134.136 370.956 139.849 370.389C140.136 370.361 140.389 370.57 140.418 370.857C140.446 371.144 140.238 371.397 139.951 371.426C135.242 371.893 130.792 372.13 126.683 372.13H126.686Z" fill="white"/>
<path d="M268.866 328.196C263.906 328.196 259.1 325.497 256.695 320.836C256.562 320.579 256.664 320.266 256.92 320.133C257.174 320.001 257.49 320.103 257.622 320.356C260.749 326.42 268.28 328.887 274.403 325.862C277.79 324.187 281.216 322.458 284.584 320.722C328.995 297.812 368.175 271.298 394.907 246.066C421.489 220.974 432.555 200.232 426.07 187.659L339.349 19.5537C341.067 32.6645 329.583 51.5087 306.234 73.5482C279.434 98.8445 240.171 125.42 195.674 148.372C192.417 150.052 189.108 151.724 185.842 153.342C182.801 154.848 180.542 157.453 179.482 160.679C178.419 163.912 178.695 167.356 180.255 170.381L205.789 219.88C205.922 220.136 205.82 220.449 205.566 220.582C205.31 220.715 204.997 220.613 204.864 220.359L179.33 170.86C177.641 167.584 177.342 163.855 178.493 160.354C179.641 156.86 182.087 154.039 185.382 152.41C188.643 150.797 191.945 149.127 195.2 147.449C239.611 124.539 278.791 98.0262 305.523 72.7938C332.083 47.7204 343.157 26.9904 336.7 14.4157L336.685 14.3872C336.553 14.1311 336.655 13.8179 336.911 13.6851C337.165 13.5523 337.48 13.6543 337.613 13.9081L427 187.185C433.717 200.208 422.575 221.389 395.626 246.827C368.825 272.124 329.562 298.699 285.066 321.652C281.692 323.393 278.26 325.124 274.868 326.801C272.946 327.75 270.897 328.201 268.871 328.201L268.866 328.196Z" fill="#7510FA"/>
<path d="M257.157 321.118C256.968 321.118 256.787 321.016 256.695 320.836L239.21 286.94C239.077 286.684 239.179 286.371 239.435 286.238C239.691 286.105 240.005 286.207 240.137 286.461L257.622 320.356C257.755 320.613 257.653 320.926 257.397 321.059C257.321 321.099 257.24 321.118 257.16 321.118H257.157Z" fill="white"/>
<path d="M239.672 287.223C239.483 287.223 239.302 287.121 239.21 286.94L231.771 272.52C231.638 272.264 231.74 271.951 231.996 271.818C232.25 271.685 232.565 271.787 232.698 272.041L240.137 286.461C240.27 286.717 240.168 287.03 239.912 287.163C239.836 287.204 239.755 287.22 239.675 287.22L239.672 287.223Z" fill="#7510FA"/>
<path d="M232.231 272.8C232.041 272.8 231.861 272.698 231.769 272.518L204.859 220.355C204.726 220.098 204.828 219.785 205.082 219.652C205.336 219.52 205.651 219.622 205.784 219.875L232.694 272.039C232.827 272.295 232.725 272.608 232.468 272.741C232.392 272.781 232.312 272.8 232.231 272.8Z" fill="white"/>
<path d="M205.644 170.348C205.454 170.348 205.274 170.246 205.182 170.065C205.049 169.809 205.151 169.496 205.405 169.363C275.84 133.027 332.216 87.7121 345.69 56.6016C345.804 56.3383 346.108 56.215 346.376 56.3312C346.639 56.4451 346.76 56.7511 346.646 57.0167C333.085 88.3312 276.514 133.852 205.881 170.291C205.806 170.331 205.723 170.348 205.644 170.348Z" fill="#7510FA"/>
<path d="M214.141 188.333C213.952 188.333 213.771 188.231 213.679 188.051C213.546 187.795 213.648 187.482 213.902 187.349C284.337 151.012 340.716 105.698 354.189 74.5872C354.303 74.3239 354.609 74.2005 354.875 74.3168C355.138 74.4306 355.259 74.7367 355.145 75.0023C341.584 106.317 285.013 151.838 214.381 188.276C214.305 188.317 214.222 188.336 214.144 188.336L214.141 188.333Z" fill="#7510FA"/>
<path d="M245.183 194.123C245 194.123 244.825 194.029 244.73 193.86C244.587 193.609 244.675 193.291 244.927 193.151C262.514 183.183 279.031 172.713 294.023 162.031C294.257 161.865 294.582 161.919 294.748 162.152C294.915 162.387 294.86 162.712 294.628 162.878C279.607 173.581 263.057 184.07 245.441 194.057C245.361 194.102 245.273 194.126 245.185 194.126L245.183 194.123Z" fill="#7510FA"/>
<path d="M306.465 154.02C306.308 154.02 306.154 153.949 306.049 153.816C305.874 153.589 305.919 153.261 306.147 153.086C335.388 130.731 355.466 109.239 362.684 92.5727C362.798 92.3093 363.106 92.1884 363.37 92.3022C363.633 92.4161 363.754 92.7245 363.64 92.9878C356.353 109.816 336.159 131.454 306.78 153.916C306.685 153.987 306.574 154.023 306.465 154.023V154.02Z" fill="#7510FA"/>
<path d="M275.907 198.887C275.734 198.887 275.563 198.799 275.463 198.643C275.311 198.398 275.385 198.078 275.629 197.924C293.1 187.017 308.981 175.816 322.835 164.636C323.06 164.455 323.387 164.491 323.568 164.714C323.748 164.937 323.712 165.267 323.489 165.447C309.605 176.653 293.688 187.878 276.182 198.806C276.097 198.861 276.002 198.885 275.907 198.885V198.887Z" fill="#7510FA"/>
<path d="M332.681 157.602C332.537 157.602 332.392 157.541 332.288 157.422C332.098 157.204 332.122 156.876 332.34 156.687C352.116 139.517 365.547 123.565 371.181 110.553C371.295 110.29 371.599 110.167 371.867 110.283C372.13 110.397 372.251 110.705 372.137 110.969C366.442 124.12 352.916 140.203 333.023 157.474C332.926 157.56 332.802 157.602 332.681 157.602Z" fill="#7510FA"/>
<path d="M248.124 260.27C247.935 260.27 247.754 260.168 247.662 259.988C247.529 259.732 247.631 259.419 247.887 259.286C251.101 257.628 254.347 255.92 257.535 254.207C257.788 254.072 258.104 254.167 258.239 254.421C258.374 254.675 258.28 254.99 258.026 255.125C254.833 256.84 251.583 258.551 248.364 260.211C248.288 260.251 248.207 260.268 248.127 260.268L248.124 260.27Z" fill="#7510FA"/>
<path d="M257.779 255.187C257.594 255.187 257.414 255.087 257.319 254.912C257.184 254.658 257.279 254.343 257.532 254.207C267.77 248.711 277.833 242.949 287.447 237.085C287.692 236.936 288.012 237.014 288.164 237.258C288.313 237.505 288.235 237.825 287.99 237.975C278.362 243.848 268.28 249.62 258.026 255.125C257.947 255.168 257.862 255.187 257.779 255.187Z" fill="white"/>
<path d="M287.72 238.051C287.544 238.051 287.374 237.963 287.274 237.802C287.124 237.555 287.203 237.235 287.447 237.085C313.073 221.453 335.917 204.81 353.508 188.959C370.977 173.22 382.963 158.546 388.17 146.522C388.284 146.259 388.59 146.138 388.856 146.252C389.119 146.365 389.24 146.674 389.126 146.937C378.314 171.904 340.507 205.937 287.988 237.975C287.902 238.027 287.81 238.051 287.717 238.051H287.72Z" fill="#7510FA"/>
<path d="M256.621 278.253C256.432 278.253 256.251 278.151 256.159 277.971C256.026 277.715 256.128 277.402 256.384 277.269C267.493 271.538 278.433 265.494 288.904 259.3C289.15 259.153 289.471 259.236 289.618 259.483C289.765 259.729 289.682 260.05 289.435 260.197C278.948 266.4 267.989 272.456 256.863 278.197C256.788 278.237 256.707 278.256 256.626 278.256L256.621 278.253Z" fill="white"/>
<path d="M289.167 260.27C288.989 260.27 288.816 260.178 288.719 260.014C288.572 259.767 288.655 259.447 288.901 259.3C344.224 226.574 385.518 190.252 396.67 164.507C396.784 164.244 397.087 164.121 397.355 164.237C397.619 164.351 397.74 164.659 397.626 164.923C386.394 190.859 344.936 227.367 289.433 260.199C289.35 260.249 289.257 260.273 289.167 260.273V260.27Z" fill="#7510FA"/>
<path d="M265.118 296.239C264.929 296.239 264.748 296.137 264.656 295.957C264.523 295.7 264.625 295.387 264.881 295.254C271.378 291.903 277.861 288.42 284.152 284.902C284.404 284.762 284.722 284.853 284.862 285.102C285.002 285.353 284.911 285.671 284.662 285.811C278.362 289.334 271.867 292.821 265.36 296.18C265.284 296.22 265.204 296.239 265.123 296.239H265.118Z" fill="#7510FA"/>
<path d="M284.404 285.88C284.221 285.88 284.043 285.783 283.948 285.614C283.808 285.363 283.899 285.045 284.148 284.905C345.595 250.552 393.097 210.354 405.164 182.493C405.278 182.23 405.586 182.109 405.85 182.223C406.113 182.337 406.234 182.645 406.12 182.908C400.168 196.65 385.758 213.492 364.444 231.613C342.884 249.945 315.294 268.687 284.655 285.816C284.575 285.861 284.487 285.882 284.401 285.882L284.404 285.88Z" fill="#7510FA"/>
<path d="M326.039 335.889C325.864 335.889 325.69 335.799 325.593 335.638C325.444 335.391 325.522 335.071 325.769 334.921C327.557 333.835 329.332 332.746 331.089 331.657C331.334 331.505 331.654 331.581 331.806 331.826C331.958 332.07 331.882 332.39 331.637 332.542C329.877 333.633 328.1 334.722 326.31 335.811C326.224 335.863 326.132 335.887 326.039 335.887V335.889ZM336.659 329.306C336.486 329.306 336.318 329.221 336.218 329.064C336.064 328.822 336.135 328.5 336.379 328.346C338.149 327.224 339.902 326.104 341.636 324.98C341.878 324.823 342.2 324.892 342.357 325.134C342.514 325.376 342.445 325.698 342.203 325.855C340.466 326.979 338.711 328.104 336.939 329.226C336.854 329.28 336.756 329.306 336.661 329.306H336.659ZM347.146 322.517C346.978 322.517 346.812 322.434 346.712 322.285C346.553 322.045 346.62 321.723 346.859 321.564C348.608 320.406 350.337 319.249 352.045 318.091C352.282 317.93 352.607 317.991 352.768 318.231C352.93 318.468 352.868 318.793 352.628 318.954C350.918 320.114 349.186 321.274 347.433 322.434C347.346 322.494 347.246 322.522 347.146 322.522V322.517ZM357.489 315.505C357.325 315.505 357.161 315.427 357.059 315.282C356.896 315.045 356.955 314.723 357.19 314.556C358.898 313.37 360.618 312.163 362.299 310.965C362.534 310.799 362.859 310.854 363.025 311.088C363.191 311.323 363.137 311.648 362.904 311.814C361.22 313.015 359.498 314.224 357.785 315.413C357.695 315.474 357.591 315.505 357.489 315.505ZM367.672 308.254C367.511 308.254 367.354 308.18 367.25 308.04C367.082 307.808 367.132 307.483 367.364 307.312C369.06 306.071 370.747 304.821 372.381 303.595C372.611 303.422 372.938 303.469 373.112 303.699C373.285 303.929 373.237 304.257 373.007 304.427C371.37 305.656 369.679 306.911 367.978 308.152C367.886 308.221 367.779 308.251 367.672 308.251V308.254Z" fill="#7510FA"/>
<path d="M372.694 304.532C372.535 304.532 372.379 304.461 372.277 304.323C372.104 304.093 372.151 303.766 372.381 303.595L372.507 303.5C372.737 303.327 373.064 303.374 373.235 303.604C373.408 303.834 373.361 304.162 373.131 304.333L373.005 304.427C372.912 304.499 372.801 304.532 372.694 304.532ZM377.79 300.649C377.633 300.649 377.479 300.58 377.377 300.447C377.201 300.219 377.242 299.892 377.469 299.716C379.12 298.438 380.771 297.14 382.38 295.859C382.605 295.679 382.932 295.717 383.113 295.942C383.293 296.168 383.255 296.495 383.03 296.675C381.419 297.961 379.763 299.261 378.107 300.542C378.013 300.615 377.901 300.651 377.79 300.651V300.649Z" fill="white"/>
<path d="M386.749 293.516C386.6 293.516 386.448 293.452 386.346 293.326C386.163 293.103 386.196 292.776 386.417 292.593C388.054 291.25 389.667 289.905 391.209 288.593C391.429 288.406 391.757 288.435 391.944 288.653C392.129 288.871 392.103 289.201 391.885 289.388C390.336 290.702 388.72 292.052 387.079 293.397C386.981 293.478 386.865 293.516 386.749 293.516Z" fill="#7510FA"/>
<path d="M395.754 285.88C395.609 285.88 395.464 285.82 395.362 285.702C395.172 285.486 395.194 285.156 395.41 284.967C396.992 283.576 398.555 282.177 400.057 280.803C400.268 280.609 400.597 280.623 400.792 280.837C400.986 281.048 400.97 281.377 400.759 281.572C399.252 282.95 397.682 284.357 396.095 285.749C395.996 285.837 395.875 285.88 395.751 285.88H395.754Z" fill="white"/>
<path d="M400.408 281.709C400.268 281.709 400.126 281.653 400.024 281.541C399.829 281.33 399.846 281 400.057 280.806C401.074 279.873 402.075 278.946 403.057 278.021C403.266 277.824 403.596 277.833 403.793 278.042C403.99 278.251 403.98 278.581 403.772 278.778C402.787 279.705 401.781 280.637 400.759 281.572C400.659 281.664 400.534 281.709 400.408 281.709ZM407.913 274.581C407.778 274.581 407.645 274.529 407.543 274.427C407.342 274.223 407.342 273.893 407.548 273.689C409.047 272.209 410.52 270.715 411.924 269.246C412.124 269.038 412.453 269.033 412.66 269.23C412.869 269.429 412.876 269.759 412.676 269.965C411.265 271.438 409.785 272.942 408.281 274.429C408.179 274.529 408.046 274.579 407.916 274.579L407.913 274.581ZM416.555 265.548C416.432 265.548 416.306 265.503 416.206 265.415C415.993 265.223 415.974 264.893 416.168 264.68C417.587 263.102 418.96 261.52 420.253 259.974C420.438 259.753 420.765 259.722 420.986 259.907C421.207 260.092 421.235 260.42 421.052 260.64C419.753 262.196 418.37 263.788 416.942 265.375C416.84 265.489 416.697 265.548 416.555 265.548ZM424.561 255.951C424.449 255.951 424.34 255.915 424.245 255.844C424.018 255.668 423.973 255.341 424.148 255.113C425.448 253.415 426.677 251.721 427.804 250.077C427.967 249.84 428.29 249.778 428.527 249.942C428.764 250.106 428.824 250.428 428.662 250.665C427.526 252.324 426.285 254.031 424.974 255.744C424.872 255.877 424.715 255.948 424.558 255.948L424.561 255.951ZM431.604 245.629C431.514 245.629 431.421 245.606 431.338 245.556C431.091 245.409 431.008 245.089 431.155 244.842C432.256 242.989 433.248 241.153 434.106 239.384C434.232 239.125 434.543 239.016 434.801 239.142C435.06 239.267 435.169 239.578 435.043 239.837C434.173 241.632 433.165 243.494 432.05 245.371C431.952 245.534 431.779 245.627 431.601 245.627L431.604 245.629Z" fill="#7510FA"/>
<path d="M53.5526 431.789C51.8352 431.789 50.132 431.761 48.4976 431.706C48.2106 431.697 47.9852 431.455 47.9947 431.168C48.0042 430.881 48.2414 430.658 48.5332 430.665C50.54 430.731 52.6322 430.757 54.7624 430.743C55.0399 430.729 55.2843 430.973 55.2866 431.26C55.2866 431.547 55.0566 431.782 54.7695 431.785C54.3615 431.787 53.9582 431.789 53.555 431.789H53.5526ZM61.013 431.628C60.7354 431.628 60.5053 431.41 60.4935 431.13C60.4816 430.843 60.7046 430.598 60.9916 430.587C63.0103 430.501 65.1049 430.38 67.2161 430.228C67.5055 430.207 67.7522 430.423 67.7735 430.71C67.7949 430.997 67.579 431.246 67.292 431.267C65.1713 431.422 63.0649 431.54 61.0367 431.626C61.0296 431.626 61.0224 431.626 61.0153 431.626L61.013 431.628ZM42.2731 431.35C42.2589 431.35 42.2447 431.35 42.2304 431.35C40.0742 431.173 37.9748 430.935 35.9894 430.648C35.7047 430.608 35.5078 430.342 35.5482 430.058C35.5885 429.773 35.8542 429.576 36.1388 429.616C38.1029 429.901 40.1833 430.134 42.3182 430.311C42.6052 430.335 42.8187 430.587 42.795 430.874C42.7713 431.146 42.5436 431.35 42.2755 431.35H42.2731ZM73.4809 430.736C73.2152 430.736 72.9898 430.534 72.9637 430.266C72.9353 429.979 73.144 429.726 73.4311 429.697C75.4474 429.498 77.5349 429.268 79.6318 429.012C79.9165 428.978 80.1774 429.18 80.213 429.465C80.2486 429.749 80.0446 430.01 79.7599 430.046C77.6535 430.304 75.5589 430.534 73.5331 430.734C73.5165 430.734 73.4975 430.736 73.4809 430.736ZM29.9167 429.529C29.8788 429.529 29.8408 429.524 29.8029 429.517C27.6608 429.035 25.616 428.471 23.7302 427.837C23.4574 427.745 23.3103 427.451 23.4028 427.178C23.4954 426.905 23.7919 426.758 24.0623 426.851C25.9149 427.472 27.9241 428.027 30.033 428.502C30.3129 428.566 30.4908 428.843 30.4267 429.123C30.3722 429.365 30.1563 429.531 29.9191 429.531L29.9167 429.529ZM85.8919 429.223C85.6357 429.223 85.4151 429.035 85.3771 428.777C85.3368 428.492 85.5337 428.229 85.8183 428.186C87.8394 427.897 89.915 427.576 91.9882 427.237C92.2705 427.19 92.5386 427.384 92.586 427.667C92.6335 427.951 92.4389 428.219 92.1567 428.264C90.0787 428.604 87.9959 428.924 85.9678 429.216C85.9417 429.22 85.9179 429.22 85.8942 429.22L85.8919 429.223ZM98.2317 427.211C97.985 427.211 97.7644 427.036 97.7193 426.784C97.6671 426.502 97.8569 426.229 98.1392 426.179C100.155 425.814 102.217 425.422 104.273 425.014C104.553 424.96 104.831 425.143 104.885 425.425C104.94 425.707 104.757 425.98 104.475 426.037C102.416 426.445 100.345 426.839 98.3242 427.204C98.2934 427.209 98.2625 427.213 98.2317 427.213V427.211ZM18.1201 425.489C18.0418 425.489 17.9636 425.47 17.8876 425.434C15.8951 424.436 14.0851 423.309 12.5077 422.083C12.2799 421.907 12.2396 421.58 12.4151 421.352C12.5907 421.124 12.918 421.084 13.1458 421.259C14.6687 422.443 16.4217 423.534 18.355 424.502C18.6111 424.63 18.7155 424.943 18.5874 425.202C18.4973 425.385 18.3123 425.489 18.1201 425.489ZM110.498 424.784C110.258 424.784 110.043 424.616 109.988 424.372C109.929 424.089 110.107 423.814 110.389 423.753C112.391 423.326 114.443 422.87 116.485 422.405C116.765 422.341 117.045 422.517 117.109 422.797C117.173 423.076 116.998 423.356 116.718 423.42C114.671 423.888 112.614 424.343 110.607 424.773C110.571 424.78 110.534 424.784 110.498 424.784ZM122.686 422.002C122.451 422.002 122.238 421.843 122.181 421.603C122.112 421.323 122.285 421.041 122.565 420.975C124.56 420.491 126.6 419.983 128.626 419.466C128.906 419.395 129.188 419.563 129.259 419.841C129.33 420.121 129.162 420.403 128.884 420.474C126.854 420.994 124.811 421.501 122.812 421.988C122.771 421.997 122.729 422.002 122.688 422.002H122.686ZM134.798 418.906C134.568 418.906 134.357 418.752 134.295 418.52C134.222 418.242 134.385 417.955 134.663 417.881C136.648 417.348 138.676 416.793 140.686 416.228C140.963 416.152 141.25 416.311 141.329 416.589C141.407 416.866 141.245 417.153 140.968 417.232C138.954 417.796 136.923 418.354 134.933 418.887C134.888 418.899 134.843 418.906 134.798 418.906ZM8.43471 417.779C8.27578 417.779 8.11922 417.708 8.01722 417.571C7.13241 416.394 6.3757 415.132 5.76369 413.818C5.48141 413.208 5.22522 412.58 5.00224 411.944C4.90736 411.674 5.04968 411.375 5.32247 411.28C5.5929 411.185 5.89179 411.327 5.98667 411.6C6.19779 412.203 6.43975 412.8 6.71017 413.379C7.29134 414.627 8.0101 415.827 8.8522 416.945C9.02537 417.175 8.97793 417.502 8.74783 417.673C8.65294 417.744 8.54383 417.777 8.43471 417.777V417.779ZM146.837 415.531C146.611 415.531 146.403 415.384 146.336 415.156C146.255 414.881 146.414 414.591 146.69 414.511C148.673 413.932 150.668 413.336 152.674 412.727C152.947 412.644 153.241 412.798 153.324 413.073C153.407 413.348 153.253 413.64 152.978 413.723C150.966 414.333 148.969 414.931 146.981 415.509C146.931 415.524 146.884 415.531 146.834 415.531H146.837ZM158.799 411.899C158.579 411.899 158.372 411.757 158.303 411.534C158.218 411.259 158.37 410.967 158.645 410.881C160.619 410.26 162.602 409.627 164.594 408.979C164.867 408.891 165.161 409.041 165.251 409.313C165.339 409.586 165.19 409.88 164.917 409.97C162.92 410.62 160.934 411.256 158.958 411.878C158.906 411.894 158.854 411.901 158.802 411.901L158.799 411.899ZM170.688 408.032C170.47 408.032 170.268 407.895 170.195 407.677C170.102 407.404 170.25 407.11 170.522 407.017C172.484 406.358 174.455 405.686 176.436 405.003C176.706 404.908 177.005 405.053 177.098 405.326C177.193 405.599 177.048 405.895 176.775 405.988C174.792 406.673 172.819 407.347 170.854 408.006C170.8 408.025 170.743 408.032 170.688 408.032ZM4.31907 406.18C4.0439 406.18 3.8138 405.964 3.79957 405.684C3.77822 405.262 3.76636 404.832 3.76636 404.403C3.76636 402.785 3.91817 401.087 4.21944 399.35C4.26925 399.068 4.5373 398.876 4.82196 398.926C5.10661 398.976 5.29639 399.244 5.24657 399.528C4.95717 401.205 4.8101 402.845 4.8101 404.403C4.8101 404.816 4.81958 405.226 4.84093 405.632C4.85516 405.919 4.63456 406.163 4.34753 406.177C4.33804 406.177 4.32855 406.177 4.32143 406.177L4.31907 406.18ZM6.30928 393.923C6.25235 393.923 6.19542 393.914 6.14086 393.895C5.86807 393.802 5.72337 393.506 5.81826 393.233C6.46347 391.352 7.27237 389.39 8.21885 387.402C8.3422 387.141 8.65295 387.032 8.91388 387.155C9.17244 387.279 9.28394 387.589 9.16058 387.85C8.23071 389.803 7.43604 391.726 6.80505 393.57C6.73152 393.785 6.52989 393.921 6.31166 393.921L6.30928 393.923ZM11.6276 382.634C11.5375 382.634 11.4473 382.61 11.3643 382.563C11.1152 382.418 11.0322 382.098 11.1793 381.849C12.1922 380.122 13.3237 378.336 14.5453 376.542C14.7066 376.305 15.0316 376.244 15.2688 376.405C15.506 376.566 15.5677 376.891 15.4064 377.128C14.199 378.905 13.0793 380.67 12.0783 382.378C11.981 382.544 11.8079 382.636 11.6276 382.636V382.634ZM18.6278 372.284C18.5186 372.284 18.4071 372.249 18.3123 372.178C18.0822 372.005 18.0395 371.677 18.2126 371.447C19.4343 369.841 20.7484 368.19 22.1195 366.539C22.3046 366.319 22.6319 366.288 22.8525 366.473C23.0731 366.658 23.104 366.985 22.9213 367.206C21.5597 368.842 20.255 370.482 19.0405 372.078C18.9385 372.213 18.7819 372.284 18.6254 372.284H18.6278ZM26.6076 362.665C26.4842 362.665 26.3609 362.623 26.2613 362.533C26.0478 362.34 26.0288 362.011 26.2209 361.797C27.5754 360.284 29.0082 358.737 30.4765 357.198C30.6758 356.989 31.0055 356.982 31.2143 357.181C31.423 357.38 31.4301 357.71 31.2309 357.916C29.7696 359.449 28.344 360.988 26.9966 362.492C26.8946 362.606 26.7523 362.665 26.6076 362.665ZM35.2303 353.616C35.0951 353.616 34.9622 353.564 34.8602 353.462C34.6586 353.258 34.6586 352.928 34.8626 352.724C36.3096 351.286 37.8254 349.823 39.3649 348.369C39.5737 348.172 39.9034 348.179 40.1003 348.39C40.2972 348.599 40.2877 348.928 40.0789 349.125C38.5465 350.572 37.0379 352.034 35.5956 353.464C35.4936 353.564 35.3608 353.616 35.2279 353.616H35.2303ZM44.3155 345.026C44.1732 345.026 44.0309 344.969 43.9289 344.856C43.7367 344.642 43.7533 344.312 43.9668 344.12C45.4874 342.747 47.0625 341.35 48.6542 339.967C48.8724 339.777 49.1998 339.801 49.3895 340.019C49.5793 340.237 49.5556 340.564 49.3373 340.754C47.7528 342.13 46.18 343.522 44.6666 344.893C44.567 344.984 44.4413 345.029 44.3179 345.029L44.3155 345.026ZM53.7519 336.823C53.6024 336.823 53.4554 336.759 53.3534 336.636C53.1683 336.415 53.1968 336.086 53.4174 335.903C54.3829 335.094 55.3626 334.283 56.3517 333.469C56.5747 333.287 56.9021 333.32 57.0847 333.543C57.2674 333.766 57.2342 334.093 57.0112 334.276C56.022 335.087 55.0471 335.894 54.084 336.703C53.9867 336.783 53.8681 336.823 53.7495 336.823H53.7519Z" fill="#7510FA"/>
<path d="M101.216 36.9177C96.8914 29.3459 87.3863 26.8243 80.156 31.4215C73.106 35.9048 70.9711 45.3009 75.324 52.6663C77.421 56.2174 80.6423 58.6417 84.2527 59.6807C87.0233 60.4777 89.4002 62.3375 90.8614 64.8946L91.7296 66.4128C92.446 67.6677 94.0093 68.0994 95.2214 67.3759L104.062 62.0955C105.274 61.372 105.673 59.7685 104.957 58.5136L104.093 57.0026C102.653 54.481 102.169 51.4802 102.869 48.6693C103.825 44.8312 103.332 40.6254 101.216 36.9201V36.9177Z" fill="#7510FA"/>
<path d="M104.907 73.9206C101.89 75.7234 97.9969 74.6488 96.2107 71.52L94.1113 67.8432L105.037 61.3198L107.137 64.9966C108.923 68.1231 107.924 72.1201 104.909 73.9206H104.907Z" fill="white"/>
<path d="M101.757 75.3154C101.185 75.3154 100.609 75.2419 100.039 75.0924C98.227 74.6156 96.7041 73.4391 95.7553 71.7786L93.6559 68.1018C93.516 67.8551 93.5966 67.5419 93.841 67.3972L104.767 60.8739C104.888 60.8027 105.03 60.7814 105.165 60.817C105.301 60.8525 105.417 60.9403 105.486 61.0613L107.585 64.7381C109.509 68.1041 108.425 72.4238 105.173 74.3689C104.122 74.9975 102.948 75.3178 101.757 75.3178V75.3154ZM94.8159 68.0282L96.6614 71.2614C97.4703 72.6776 98.7631 73.681 100.305 74.0843C101.788 74.4733 103.327 74.2551 104.639 73.4723C107.41 71.8189 108.325 68.1302 106.681 65.2528L104.845 62.0386L94.8159 68.0282Z" fill="#7510FA"/>
<path d="M75.1676 21.869C74.9873 21.869 74.8118 21.7742 74.7145 21.6081L67.0549 8.24591C66.9126 7.99683 66.998 7.67897 67.247 7.53427C67.4961 7.39194 67.814 7.47733 67.9587 7.72641L75.6183 21.0886C75.7606 21.3377 75.6752 21.6555 75.4261 21.8002C75.3455 21.8477 75.2554 21.869 75.1676 21.869Z" fill="#7510FA"/>
<path d="M49.8783 71.4417C49.698 71.4417 49.5225 71.3468 49.4253 71.1784C49.2829 70.9293 49.3683 70.6114 49.6174 70.4667L67.0288 60.4967C67.2803 60.3543 67.5958 60.4397 67.7405 60.6888C67.8828 60.9379 67.7974 61.2557 67.5483 61.4004L50.1369 71.3705C50.0562 71.4179 49.9661 71.4393 49.8783 71.4393V71.4417Z" fill="#7510FA"/>
<path d="M112.147 36.2607C111.964 36.2607 111.786 36.1634 111.691 35.9926C111.551 35.7412 111.641 35.4233 111.893 35.2833L129.9 25.2398C130.151 25.0998 130.469 25.1899 130.609 25.4414C130.749 25.6928 130.659 26.0107 130.407 26.1507L112.4 36.1942C112.32 36.2393 112.232 36.2607 112.147 36.2607Z" fill="#7510FA"/>
<path d="M62.2442 40.967C62.1968 40.967 62.1494 40.9598 62.1019 40.948L45.1626 36.1705C44.885 36.0922 44.7237 35.8052 44.802 35.5277C44.8803 35.2501 45.1673 35.0888 45.4448 35.1671L62.3842 39.9446C62.6617 40.0228 62.8231 40.3099 62.7448 40.5874C62.6807 40.8175 62.472 40.967 62.2442 40.967Z" fill="#7510FA"/>
<path d="M97.6576 21.8121C97.6126 21.8121 97.5651 21.805 97.5177 21.7931C97.2401 21.7172 97.0788 21.4302 97.1547 21.1526L102.096 3.25253C102.172 2.97499 102.459 2.81369 102.736 2.8896C103.014 2.9655 103.175 3.25253 103.099 3.53007L98.1581 21.4302C98.0941 21.6603 97.8853 21.8121 97.6552 21.8121H97.6576Z" fill="#7510FA"/>
<path d="M403.432 81.9621C403.307 81.9621 403.181 81.917 403.081 81.8269C402.868 81.6324 402.854 81.3027 403.048 81.0915C403.705 80.3704 404.353 79.654 404.989 78.94C405.178 78.7242 405.508 78.7052 405.724 78.8973C405.94 79.0894 405.959 79.4168 405.767 79.6327C405.128 80.3514 404.478 81.0726 403.817 81.7961C403.715 81.9075 403.572 81.9668 403.432 81.9668V81.9621ZM409.46 75.0734C409.341 75.0734 409.223 75.0331 409.126 74.9525C408.905 74.7674 408.876 74.4401 409.059 74.2195C410.421 72.5922 411.74 70.9602 412.975 69.3708C413.153 69.1431 413.478 69.1028 413.706 69.2783C413.934 69.4539 413.974 69.7812 413.796 70.0089C412.553 71.6078 411.227 73.2493 409.858 74.886C409.754 75.0094 409.607 75.0734 409.458 75.0734H409.46ZM417.122 65.1983C417.018 65.1983 416.911 65.1674 416.821 65.101C416.586 64.935 416.531 64.61 416.7 64.3751C417.938 62.6364 419.112 60.9023 420.187 59.2205C420.343 58.9785 420.664 58.9074 420.906 59.0616C421.147 59.2158 421.219 59.5384 421.064 59.7803C419.98 61.4764 418.797 63.227 417.549 64.98C417.447 65.1224 417.288 65.1983 417.124 65.1983H417.122ZM423.83 54.6565C423.745 54.6565 423.66 54.6352 423.579 54.5901C423.327 54.4501 423.235 54.1347 423.375 53.8808C424.419 51.9974 425.36 50.1329 426.172 48.3396C426.29 48.0786 426.599 47.96 426.862 48.081C427.123 48.1996 427.239 48.508 427.12 48.7713C426.297 50.5883 425.341 52.4789 424.286 54.3861C424.191 54.5569 424.013 54.6542 423.83 54.6542V54.6565ZM428.935 43.2656C428.881 43.2656 428.826 43.2561 428.771 43.2395C428.499 43.1493 428.349 42.8552 428.439 42.5824C429.12 40.5234 429.633 38.5142 429.965 36.607C430.014 36.3247 430.28 36.1349 430.567 36.1824C430.849 36.2322 431.039 36.5026 430.992 36.7849C430.65 38.7419 430.126 40.8033 429.429 42.9097C429.357 43.128 429.153 43.2679 428.935 43.2679V43.2656ZM430.949 30.9969C430.669 30.9969 430.439 30.7739 430.43 30.494C430.358 28.3781 430.026 26.357 429.436 24.4878C429.35 24.2126 429.502 23.9208 429.775 23.8331C430.048 23.7453 430.342 23.8995 430.43 24.1723C431.049 26.1317 431.4 28.2476 431.471 30.4584C431.48 30.7455 431.255 30.9874 430.968 30.9969C430.961 30.9969 430.956 30.9969 430.951 30.9969H430.949ZM301.395 21.5938C301.172 21.5938 300.966 21.4515 300.897 21.2261C300.812 20.9509 300.966 20.6592 301.241 20.5738C303.236 19.957 305.25 19.3474 307.228 18.7615C307.506 18.6784 307.793 18.8374 307.876 19.1125C307.957 19.3877 307.8 19.6771 307.525 19.7601C305.549 20.346 303.537 20.9533 301.547 21.5701C301.495 21.5867 301.443 21.5938 301.393 21.5938H301.395ZM427.175 19.2715C427.011 19.2715 426.85 19.1956 426.748 19.0509C425.617 17.4426 424.21 15.9576 422.566 14.634C422.341 14.4537 422.307 14.1263 422.488 13.901C422.668 13.678 422.995 13.64 423.221 13.8227C424.938 15.2056 426.411 16.7641 427.6 18.4507C427.766 18.6856 427.709 19.0105 427.474 19.1766C427.384 19.2406 427.279 19.2715 427.175 19.2715ZM313.384 18.0451C313.156 18.0451 312.948 17.8956 312.883 17.6655C312.805 17.388 312.966 17.101 313.244 17.0227C315.263 16.4534 317.291 15.8936 319.279 15.3622C319.556 15.2887 319.843 15.4523 319.917 15.7299C319.99 16.0074 319.827 16.2944 319.549 16.368C317.568 16.8993 315.543 17.4568 313.529 18.0237C313.481 18.038 313.434 18.0427 313.386 18.0427L313.384 18.0451ZM325.46 14.8119C325.228 14.8119 325.015 14.6553 324.955 14.4181C324.884 14.1382 325.055 13.8559 325.332 13.7847C327.37 13.27 329.417 12.7695 331.412 12.2974C331.694 12.231 331.972 12.4042 332.038 12.6841C332.105 12.964 331.932 13.2439 331.652 13.3103C329.662 13.78 327.619 14.2805 325.589 14.7929C325.546 14.8047 325.503 14.8095 325.46 14.8095V14.8119ZM337.627 11.9368C337.388 11.9368 337.172 11.7708 337.12 11.5265C337.058 11.2466 337.236 10.9666 337.516 10.9073C339.575 10.4566 341.636 10.0225 343.643 9.62165C343.923 9.56471 344.2 9.74737 344.255 10.0297C344.312 10.3119 344.129 10.5871 343.847 10.6417C341.847 11.0425 339.791 11.4743 337.739 11.9226C337.701 11.9297 337.663 11.9345 337.627 11.9345V11.9368ZM417.63 11.4031C417.551 11.4031 417.471 11.3841 417.397 11.3486C415.668 10.4804 413.744 9.69992 411.685 9.03335C411.412 8.94559 411.263 8.65144 411.351 8.37628C411.438 8.10348 411.732 7.95167 412.008 8.04181C414.119 8.72498 416.09 9.52439 417.867 10.4163C418.123 10.5444 418.227 10.8575 418.099 11.1161C418.007 11.2987 417.824 11.4031 417.634 11.4031H417.63ZM349.886 9.48169C349.64 9.48169 349.419 9.30615 349.374 9.05234C349.324 8.77005 349.512 8.49725 349.794 8.44744C351.874 8.07264 353.952 7.72157 355.968 7.4037C356.253 7.35863 356.519 7.55315 356.564 7.83781C356.609 8.12246 356.414 8.38814 356.13 8.43321C354.121 8.75107 352.05 9.09978 349.976 9.47457C349.946 9.47932 349.915 9.48407 349.884 9.48407L349.886 9.48169ZM362.236 7.53654C361.977 7.53654 361.754 7.34677 361.721 7.08346C361.683 6.79881 361.882 6.53551 362.169 6.49756C364.271 6.21764 366.365 5.96619 368.389 5.7527C368.678 5.72187 368.932 5.93062 368.961 6.21527C368.991 6.5023 368.783 6.75848 368.498 6.78695C366.482 7.00044 364.399 7.24951 362.304 7.52943C362.281 7.5318 362.257 7.53417 362.236 7.53417V7.53654ZM405.802 7.47961C405.767 7.47961 405.731 7.47724 405.698 7.46776C403.769 7.07161 401.708 6.73951 399.571 6.48095C399.286 6.44537 399.082 6.1868 399.115 5.90215C399.151 5.61749 399.407 5.41349 399.694 5.4467C401.86 5.70763 403.95 6.04447 405.907 6.44774C406.189 6.50467 406.369 6.7822 406.312 7.06212C406.262 7.30882 406.044 7.47724 405.802 7.47724V7.47961ZM374.668 6.2295C374.398 6.2295 374.17 6.02076 374.148 5.74796C374.127 5.46093 374.343 5.21186 374.63 5.19051C376.76 5.03158 378.867 4.9106 380.89 4.83469C381.165 4.8252 381.419 5.04818 381.431 5.33521C381.443 5.62223 381.217 5.86419 380.93 5.87605C378.919 5.95433 376.827 6.07294 374.708 6.2295C374.694 6.2295 374.682 6.2295 374.668 6.2295ZM393.408 5.94484C393.408 5.94484 393.389 5.94484 393.379 5.94484C391.387 5.83335 389.294 5.77168 387.157 5.76456C386.87 5.76456 386.638 5.52972 386.638 5.24032C386.638 4.95329 386.873 4.72083 387.16 4.72083C389.313 4.73031 391.425 4.79199 393.434 4.90348C393.721 4.92009 393.942 5.16441 393.925 5.45381C393.911 5.73135 393.681 5.94484 393.405 5.94484H393.408Z" fill="#7510FA"/>
<path d="M44.6595 256.003C44.6595 256.003 44.6524 256.003 44.65 256.003C42.4937 255.963 40.3826 255.868 38.3781 255.721C38.0911 255.699 37.8752 255.45 37.8966 255.163C37.9179 254.876 38.1646 254.66 38.454 254.682C40.4395 254.829 42.5317 254.921 44.669 254.961C44.956 254.966 45.1861 255.203 45.1814 255.493C45.1766 255.778 44.9442 256.005 44.6619 256.005L44.6595 256.003ZM50.9101 255.974C50.6278 255.974 50.3977 255.749 50.3906 255.467C50.3835 255.18 50.6088 254.94 50.8982 254.933C52.9098 254.878 55.0044 254.784 57.1227 254.646C57.4144 254.632 57.6564 254.845 57.6754 255.132C57.6944 255.419 57.4761 255.666 57.1891 255.685C55.0565 255.823 52.9501 255.92 50.9243 255.974C50.9196 255.974 50.9148 255.974 50.9101 255.974ZM63.3851 255.182C63.1194 255.182 62.8941 254.98 62.868 254.712C62.8395 254.425 63.0506 254.172 63.3353 254.143C65.3492 253.949 67.4343 253.716 69.5337 253.45C69.8183 253.415 70.0792 253.616 70.1148 253.904C70.1504 254.188 69.9488 254.449 69.6618 254.485C67.5529 254.75 65.4583 254.983 63.4349 255.18C63.4183 255.18 63.4017 255.182 63.3851 255.182ZM32.2035 255.059C32.1797 255.059 32.1536 255.059 32.1275 255.054C29.9618 254.743 27.8814 254.354 25.941 253.894C25.6611 253.828 25.488 253.548 25.5544 253.268C25.6208 252.988 25.9007 252.815 26.1806 252.881C28.0902 253.332 30.1421 253.718 32.277 254.024C32.5616 254.065 32.7585 254.33 32.7182 254.615C32.6803 254.874 32.4573 255.061 32.2035 255.061V255.059ZM75.789 253.631C75.5351 253.631 75.3145 253.446 75.2742 253.187C75.2315 252.902 75.426 252.637 75.7107 252.594C77.7222 252.29 79.7931 251.954 81.8687 251.593C82.1534 251.543 82.4214 251.733 82.4712 252.018C82.5211 252.3 82.3313 252.57 82.0466 252.62C79.9639 252.983 77.8836 253.32 75.8649 253.624C75.8388 253.628 75.8127 253.631 75.7866 253.631H75.789ZM20.0748 252.122C20.0154 252.122 19.9538 252.113 19.8945 252.089C17.807 251.32 15.8737 250.426 14.1492 249.434C13.9001 249.292 13.8147 248.972 13.957 248.723C14.1017 248.474 14.4196 248.388 14.6687 248.531C16.3434 249.494 18.2245 250.362 20.255 251.112C20.5255 251.211 20.663 251.51 20.5634 251.78C20.4851 251.992 20.2859 252.122 20.0748 252.122ZM88.1074 251.493C87.8631 251.493 87.6449 251.32 87.5974 251.071C87.5429 250.789 87.7279 250.516 88.0102 250.462C90.0075 250.073 92.0641 249.653 94.1255 249.211C94.4054 249.152 94.683 249.33 94.7446 249.612C94.8039 249.895 94.626 250.17 94.3438 250.231C92.2776 250.673 90.2139 251.095 88.2094 251.484C88.1762 251.491 88.143 251.493 88.1098 251.493H88.1074ZM100.333 248.884C100.096 248.884 99.8827 248.72 99.8257 248.481C99.7617 248.201 99.9349 247.921 100.215 247.855C102.207 247.394 104.25 246.903 106.285 246.398C106.565 246.329 106.847 246.5 106.916 246.778C106.985 247.058 106.814 247.34 106.536 247.409C104.496 247.914 102.447 248.405 100.45 248.867C100.409 248.877 100.371 248.882 100.331 248.882L100.333 248.884ZM112.469 245.879C112.239 245.879 112.028 245.724 111.966 245.49C111.893 245.212 112.059 244.927 112.336 244.854C114.327 244.33 116.352 243.779 118.364 243.222C118.641 243.146 118.929 243.307 119.004 243.585C119.08 243.862 118.919 244.149 118.641 244.225C116.628 244.785 114.595 245.335 112.602 245.862C112.557 245.874 112.512 245.879 112.469 245.879ZM9.37882 245.824C9.25073 245.824 9.12263 245.777 9.023 245.682C7.42893 244.183 6.09342 242.505 5.05206 240.696C4.90973 240.446 4.99513 240.129 5.2442 239.984C5.49328 239.842 5.81114 239.927 5.95584 240.176C6.94739 241.898 8.21885 243.495 9.73939 244.923C9.94814 245.12 9.95999 245.449 9.76311 245.658C9.6611 245.767 9.52115 245.822 9.38357 245.822L9.37882 245.824ZM124.512 242.532C124.287 242.532 124.078 242.384 124.012 242.157C123.931 241.882 124.09 241.592 124.365 241.512C126.339 240.935 128.353 240.333 130.348 239.723C130.623 239.64 130.915 239.794 130.998 240.069C131.081 240.344 130.927 240.636 130.652 240.719C128.652 241.331 126.633 241.934 124.655 242.51C124.607 242.524 124.558 242.532 124.508 242.532H124.512ZM136.47 238.881C136.25 238.881 136.043 238.738 135.975 238.518C135.887 238.243 136.039 237.951 136.314 237.863C138.28 237.237 140.261 236.594 142.256 235.937C142.529 235.847 142.823 235.994 142.913 236.269C143.003 236.542 142.854 236.836 142.581 236.926C140.584 237.586 138.601 238.228 136.629 238.857C136.577 238.874 136.523 238.881 136.47 238.881ZM3.25873 235.149C3.01915 235.149 2.80565 234.983 2.75109 234.741C2.37629 233.055 2.18652 231.257 2.18652 229.399C2.18652 229.067 2.19127 228.735 2.2055 228.398C2.21737 228.111 2.4522 227.884 2.74398 227.895C3.031 227.905 3.25635 228.147 3.24687 228.434C3.235 228.757 3.23027 229.079 3.23027 229.397C3.23027 231.179 3.41292 232.898 3.77111 234.514C3.83279 234.794 3.65725 235.074 3.37496 235.135C3.33701 235.145 3.29906 235.147 3.26111 235.147L3.25873 235.149ZM148.343 234.96C148.127 234.96 147.923 234.824 147.85 234.606C147.757 234.333 147.902 234.037 148.174 233.944C150.129 233.275 152.096 232.592 154.074 231.893C154.344 231.798 154.643 231.938 154.738 232.21C154.833 232.481 154.691 232.78 154.42 232.875C152.44 233.574 150.471 234.26 148.511 234.931C148.454 234.95 148.397 234.96 148.343 234.96ZM3.55287 222.757C3.51492 222.757 3.47697 222.753 3.43901 222.746C3.1591 222.682 2.98119 222.404 3.04524 222.124C3.48171 220.184 4.09135 218.151 4.85754 216.078C4.95717 215.807 5.25844 215.67 5.52649 215.769C5.79691 215.869 5.93449 216.168 5.83486 216.438C5.08527 218.469 4.48749 220.459 4.06288 222.352C4.00832 222.594 3.79246 222.76 3.55525 222.76L3.55287 222.757ZM7.8061 211.037C7.73019 211.037 7.65191 211.02 7.57838 210.985C7.31981 210.859 7.2107 210.548 7.33642 210.29C8.20937 208.489 9.20566 206.622 10.2992 204.744C10.4439 204.494 10.7618 204.409 11.0108 204.554C11.2599 204.698 11.3453 205.016 11.2006 205.265C10.1213 207.123 9.13687 208.966 8.27578 210.743C8.18564 210.928 8.00061 211.037 7.8061 211.037ZM14.0495 200.217C13.9499 200.217 13.8503 200.189 13.7625 200.132C13.5229 199.973 13.4565 199.651 13.6154 199.411C14.728 197.729 15.9354 196 17.2068 194.266C17.3776 194.033 17.7026 193.984 17.9351 194.154C18.1676 194.325 18.2174 194.65 18.0466 194.883C16.787 196.602 15.5867 198.32 14.4836 199.987C14.384 200.139 14.218 200.22 14.0495 200.22V200.217ZM21.4245 190.126C21.3106 190.126 21.1968 190.088 21.0995 190.013C20.8742 189.835 20.8362 189.505 21.0165 189.28C22.2785 187.693 23.6211 186.065 25.004 184.443C25.1914 184.225 25.5188 184.199 25.7394 184.384C25.9576 184.571 25.9837 184.898 25.7987 185.119C24.4229 186.734 23.0874 188.352 21.8325 189.93C21.7305 190.06 21.5787 190.126 21.4245 190.126ZM29.5277 180.607C29.4043 180.607 29.2786 180.562 29.179 180.472C28.9655 180.28 28.9489 179.95 29.141 179.737C30.5074 178.225 31.9425 176.679 33.4037 175.146C33.603 174.938 33.9327 174.931 34.1391 175.127C34.3479 175.327 34.355 175.656 34.1581 175.863C32.704 177.39 31.2736 178.928 29.9143 180.434C29.8123 180.548 29.67 180.605 29.5277 180.605V180.607ZM38.1456 171.55C38.0128 171.55 37.88 171.5 37.778 171.398C37.574 171.194 37.574 170.865 37.778 170.661C39.2202 169.214 40.7241 167.738 42.247 166.272C42.4534 166.073 42.7855 166.08 42.9848 166.287C43.184 166.493 43.1769 166.823 42.9705 167.024C41.4524 168.483 39.9556 169.956 38.5181 171.396C38.4161 171.498 38.2832 171.55 38.1504 171.55H38.1456ZM47.1526 162.88C47.0127 162.88 46.8727 162.823 46.7707 162.714C46.5762 162.503 46.588 162.173 46.7992 161.979C48.3031 160.586 49.8592 159.168 51.4296 157.763C51.6454 157.571 51.9728 157.59 52.1649 157.804C52.3571 158.017 52.3381 158.347 52.1246 158.539C50.559 159.939 49.0076 161.353 47.5084 162.743C47.4088 162.835 47.2807 162.883 47.155 162.883L47.1526 162.88ZM56.468 154.54C56.3209 154.54 56.1762 154.478 56.0742 154.359C55.8868 154.141 55.9105 153.814 56.1264 153.624C57.6777 152.281 59.2789 150.913 60.8872 149.561C61.1079 149.376 61.4352 149.404 61.6202 149.625C61.8052 149.845 61.7768 150.173 61.5562 150.358C59.9526 151.707 58.3538 153.071 56.8072 154.412C56.7075 154.497 56.5866 154.54 56.4656 154.54H56.468Z" fill="#7510FA"/>
<path d="M304.126 345.439C303.843 345.439 303.611 345.214 303.604 344.929L303.545 342.159C303.537 341.872 303.768 341.632 304.055 341.627C304.342 341.623 304.581 341.85 304.586 342.137L304.645 344.908C304.652 345.195 304.422 345.435 304.135 345.439C304.131 345.439 304.128 345.439 304.123 345.439H304.126Z" fill="#7510FA"/>
<path d="M304.334 355.134C304.052 355.134 303.82 354.909 303.813 354.624L303.753 351.854C303.746 351.567 303.976 351.327 304.263 351.322C304.546 351.32 304.79 351.545 304.795 351.832L304.854 354.603C304.861 354.89 304.631 355.13 304.344 355.134C304.342 355.134 304.337 355.134 304.332 355.134H304.334Z" fill="#7510FA"/>
<path d="M298.058 348.95C297.771 348.95 297.538 348.72 297.536 348.433C297.536 348.146 297.766 347.911 298.053 347.909L300.783 347.887C301.077 347.902 301.308 348.118 301.308 348.405C301.308 348.692 301.08 348.926 300.79 348.929L298.06 348.95H298.055H298.058Z" fill="#7510FA"/>
<path d="M307.613 348.874C307.326 348.874 307.093 348.644 307.091 348.357C307.091 348.07 307.321 347.835 307.608 347.833L310.338 347.812H310.343C310.63 347.812 310.863 348.042 310.865 348.329C310.865 348.616 310.635 348.851 310.348 348.853L307.617 348.874H307.613Z" fill="#7510FA"/>
<path d="M186.824 50.5836C186.25 50.5836 185.676 50.4769 185.123 50.2634C183.923 49.7961 182.978 48.8805 182.461 47.6849C181.408 45.2416 182.502 42.3784 184.9 41.3015C186.055 40.782 187.341 40.7488 188.52 41.209C189.72 41.6763 190.664 42.592 191.181 43.7875C192.234 46.2308 191.141 49.094 188.743 50.1709C188.128 50.4461 187.476 50.586 186.824 50.586V50.5836ZM185.327 42.248C183.446 43.0925 182.589 45.346 183.42 47.2698C183.825 48.2092 184.565 48.9255 185.502 49.2908C186.42 49.6467 187.419 49.6206 188.318 49.2173C190.199 48.3728 191.056 46.1193 190.225 44.1955C189.82 43.2561 189.082 42.5398 188.143 42.1744C187.225 41.8186 186.226 41.8447 185.327 42.248Z" fill="#7510FA"/>
</svg>
