<svg width="600" height="450" viewBox="0 0 600 450" fill="none" xmlns="http://www.w3.org/2000/svg">
<path d="M497.36 316.51C496.16 316.51 494.95 316.2 493.88 315.58L482.14 308.8C481.46 308.41 481.05 307.7 481.05 306.92C481.05 306.14 481.46 305.43 482.14 305.04L493.88 298.26C496.03 297.02 498.7 297.02 500.84 298.26L512.58 305.04C513.26 305.43 513.67 306.14 513.67 306.92C513.67 307.7 513.26 308.41 512.58 308.8L500.84 315.58C499.77 316.2 498.56 316.51 497.36 316.51ZM497.36 299.19C496.48 299.19 495.6 299.42 494.81 299.87L483.07 306.65C482.93 306.73 482.91 306.85 482.91 306.92C482.91 306.99 482.93 307.11 483.07 307.19L494.81 313.97C496.38 314.88 498.34 314.88 499.91 313.97L511.65 307.19C511.79 307.11 511.81 306.99 511.81 306.92C511.81 306.85 511.79 306.73 511.65 306.65L499.91 299.87C499.12 299.42 498.24 299.19 497.36 299.19Z" fill="url(#paint0_linear_7_2280)"/>
<path d="M463.8 278.05C461.84 278.05 459.89 277.55 458.14 276.54L437.94 264.88C436.98 264.33 436.4 263.33 436.4 262.22C436.4 261.11 436.97 260.12 437.94 259.56L458.14 247.9C461.63 245.89 465.96 245.88 469.45 247.9L489.65 259.56C490.61 260.11 491.19 261.11 491.19 262.22C491.19 263.33 490.62 264.32 489.66 264.88L469.46 276.54C467.72 277.55 465.76 278.05 463.8 278.05ZM459.07 274.93C461.99 276.61 465.61 276.61 468.52 274.93L488.72 263.27C489.26 262.95 489.32 262.43 489.32 262.22C489.32 262.01 489.26 261.49 488.72 261.17L468.52 249.51C465.6 247.83 461.98 247.83 459.07 249.51L438.87 261.17C438.33 261.49 438.27 262.01 438.27 262.22C438.27 262.43 438.33 262.95 438.87 263.27L459.07 274.93Z" fill="url(#paint1_linear_7_2280)"/>
<path d="M102.57 296.41C100.61 296.41 98.6599 295.91 96.9099 294.9L76.7099 283.24C75.7499 282.68 75.1699 281.69 75.1699 280.58C75.1699 279.47 75.7399 278.48 76.7099 277.92L96.9099 266.26C100.4 264.24 104.73 264.24 108.22 266.26L128.42 277.92C129.38 278.47 129.96 279.47 129.96 280.58C129.96 281.69 129.39 282.68 128.42 283.24L108.22 294.9C106.48 295.91 104.52 296.41 102.56 296.41H102.57ZM102.57 266.61C100.94 266.61 99.2999 267.03 97.8399 267.87L77.6399 279.53C77.0999 279.85 77.0399 280.37 77.0399 280.58C77.0399 280.79 77.0999 281.31 77.6399 281.63L97.8399 293.29C100.76 294.97 104.38 294.97 107.29 293.29L127.49 281.63C128.04 281.31 128.09 280.79 128.09 280.58C128.09 280.37 128.03 279.85 127.49 279.53L107.29 267.87C105.83 267.03 104.2 266.61 102.56 266.61H102.57Z" fill="url(#paint2_linear_7_2280)"/>
<path opacity="0.6" d="M307.12 347.28L162.69 263.89C160.58 262.67 160.85 260.55 163.28 259.15L255.98 205.63C258.41 204.23 262.09 204.07 264.19 205.29L408.62 288.68C410.73 289.9 410.46 292.02 408.03 293.42L315.33 346.94C312.9 348.34 309.22 348.5 307.12 347.28Z" fill="#020230"/>
<path d="M310.43 362.34C308.74 362.34 307.12 361.99 305.89 361.27L141.05 266.1C139.7 265.32 138.96 264.2 138.96 262.94C138.96 261.49 139.97 260.08 141.72 259.07L254.08 193.24C257.16 191.46 261.69 191.29 264.39 192.85L429.23 288.02C430.58 288.8 431.32 289.92 431.32 291.18C431.32 292.63 430.31 294.03 428.56 295.05L316.2 360.88C314.53 361.84 312.43 362.34 310.44 362.34H310.43ZM259.87 193.66C258.18 193.66 256.39 194.07 255.02 194.86L142.66 260.69C141.51 261.36 140.83 262.2 140.83 262.95C140.83 263.7 141.46 264.19 141.99 264.49L306.83 359.66C308.93 360.88 312.8 360.7 315.27 359.27L427.63 293.44C428.78 292.77 429.46 291.93 429.46 291.18C429.46 290.43 428.83 289.94 428.3 289.64L263.46 194.47C262.52 193.93 261.23 193.66 259.87 193.66Z" fill="url(#paint3_linear_7_2280)"/>
<path d="M446.99 148.88L303.13 65.82C302.14 65.25 301.11 65.13 300.19 65.4C300.19 65.4 300.19 65.4 300.18 65.4L297.52 66.33L298.46 66.55C298.08 67 297.78 67.55 297.58 68.2L265.05 173.83C264.24 176.45 265.42 179.63 267.69 180.94L411.55 264C411.9 264.2 412.25 264.34 412.61 264.43L412.25 265.21L414.79 264.32C415.83 263.9 416.69 262.97 417.1 261.63L449.63 156C450.44 153.38 449.26 150.2 446.99 148.89V148.88Z" fill="url(#paint4_radial_7_2280)"/>
<path d="M406.39 267.94L406.44 268L264.34 185.96C262.25 184.75 258.6 184.9 256.18 186.3L164.37 239.31L161.31 238.14L162.17 242.44C162.28 243.08 162.74 243.69 163.55 244.16L306.96 326.96C309.05 328.17 312.7 328.02 315.12 326.62L407.16 273.48C408.3 272.82 408.95 272.01 409.11 271.21L409.99 267.04L406.38 267.96L406.39 267.94Z" fill="url(#paint5_radial_7_2280)"/>
<path d="M307.12 323.17L162.69 239.78C160.58 238.56 160.85 236.44 163.28 235.04L255.98 181.52C258.41 180.12 262.09 179.96 264.19 181.18L408.62 264.57C410.73 265.79 410.46 267.91 408.03 269.31L315.33 322.83C312.9 324.23 309.22 324.39 307.12 323.17Z" fill="url(#paint6_radial_7_2280)"/>
<path d="M408.03 268.19L315.33 321.71C312.9 323.11 309.22 323.27 307.12 322.05L162.69 238.66C161.97 238.25 161.55 237.72 161.38 237.16C161.1 238.13 161.51 239.1 162.69 239.78L307.12 323.17C309.23 324.39 312.9 324.23 315.33 322.83L408.03 269.31C409.63 268.38 410.27 267.15 409.93 266.07C409.71 266.82 409.09 267.58 408.03 268.19Z" fill="white"/>
<g opacity="0.4">
<path d="M231.58 226.25L226.7 223.43C226.31 223.2 226.36 222.81 226.81 222.55L232.57 219.23C233.02 218.97 233.71 218.94 234.1 219.17L238.98 221.99C239.37 222.22 239.32 222.61 238.87 222.87L233.11 226.19C232.66 226.45 231.97 226.48 231.58 226.25Z" fill="#06033E"/>
<path d="M239.11 230.6L234.23 227.78C233.84 227.55 233.89 227.16 234.34 226.9L240.1 223.58C240.55 223.32 241.24 223.29 241.63 223.52L246.51 226.34C246.9 226.57 246.85 226.96 246.4 227.22L240.64 230.54C240.19 230.8 239.5 230.83 239.11 230.6Z" fill="#06033E"/>
<path d="M246.64 234.95L241.76 232.13C241.37 231.9 241.42 231.51 241.87 231.25L247.63 227.93C248.08 227.67 248.77 227.64 249.16 227.87L254.04 230.69C254.43 230.92 254.38 231.31 253.93 231.57L248.17 234.89C247.72 235.15 247.03 235.18 246.64 234.95Z" fill="#06033E"/>
<path d="M257.06 231.36L252.18 228.54C251.79 228.31 251.84 227.92 252.29 227.66L257.12 224.87C257.57 224.61 258.26 224.58 258.65 224.81L263.53 227.63C263.92 227.86 263.87 228.25 263.42 228.51L258.59 231.3C258.14 231.56 257.45 231.59 257.06 231.36Z" fill="#06033E"/>
<path d="M264.59 235.7L259.71 232.88C259.32 232.65 259.37 232.26 259.82 232L264.65 229.21C265.1 228.95 265.79 228.92 266.18 229.15L271.06 231.97C271.45 232.2 271.4 232.59 270.95 232.85L266.12 235.64C265.67 235.9 264.98 235.93 264.59 235.7Z" fill="#06033E"/>
<path d="M272.12 240.05L267.24 237.23C266.85 237 266.9 236.61 267.35 236.35L272.18 233.56C272.63 233.3 273.32 233.27 273.71 233.5L278.59 236.32C278.98 236.55 278.93 236.94 278.48 237.2L273.65 239.99C273.2 240.25 272.51 240.28 272.12 240.05Z" fill="#06033E"/>
<path d="M279.65 244.4L274.77 241.58C274.38 241.35 274.43 240.96 274.88 240.7L279.71 237.91C280.16 237.65 280.85 237.62 281.24 237.85L286.12 240.67C286.51 240.9 286.46 241.29 286.01 241.55L281.18 244.34C280.73 244.6 280.04 244.63 279.65 244.4Z" fill="#06033E"/>
<path d="M287.18 248.75L282.3 245.93C281.91 245.7 281.96 245.31 282.41 245.05L287.24 242.26C287.69 242 288.38 241.97 288.77 242.2L293.65 245.02C294.04 245.25 293.99 245.64 293.54 245.9L288.71 248.69C288.26 248.95 287.57 248.98 287.18 248.75Z" fill="#06033E"/>
<path d="M294.71 253.09L289.83 250.27C289.44 250.04 289.49 249.65 289.94 249.39L294.77 246.6C295.22 246.34 295.91 246.31 296.3 246.54L301.18 249.36C301.57 249.59 301.52 249.98 301.07 250.24L296.24 253.03C295.79 253.29 295.1 253.32 294.71 253.09Z" fill="#06033E"/>
<path d="M302.24 257.44L297.36 254.62C296.97 254.39 297.02 254 297.47 253.74L302.3 250.95C302.75 250.69 303.44 250.66 303.83 250.89L308.71 253.71C309.1 253.94 309.05 254.33 308.6 254.59L303.77 257.38C303.32 257.64 302.63 257.67 302.24 257.44Z" fill="#06033E"/>
<path d="M309.77 261.79L304.89 258.97C304.5 258.74 304.55 258.35 305 258.09L309.83 255.3C310.28 255.04 310.97 255.01 311.36 255.24L316.24 258.06C316.63 258.29 316.58 258.68 316.13 258.94L311.3 261.73C310.85 261.99 310.16 262.02 309.77 261.79Z" fill="#06033E"/>
<path d="M317.3 266.14L312.42 263.32C312.03 263.09 312.08 262.7 312.53 262.44L317.36 259.65C317.81 259.39 318.5 259.36 318.89 259.59L323.77 262.41C324.16 262.64 324.11 263.03 323.66 263.29L318.83 266.08C318.38 266.34 317.69 266.37 317.3 266.14Z" fill="#06033E"/>
<path d="M324.83 270.48L319.95 267.66C319.56 267.43 319.61 267.04 320.06 266.78L324.89 263.99C325.34 263.73 326.03 263.7 326.42 263.93L331.3 266.75C331.69 266.98 331.64 267.37 331.19 267.63L326.36 270.42C325.91 270.68 325.22 270.71 324.83 270.48Z" fill="#06033E"/>
<path d="M268.15 229.3L263.27 226.48C262.88 226.25 262.93 225.86 263.38 225.6L268.21 222.81C268.66 222.55 269.35 222.52 269.74 222.75L274.62 225.57C275.01 225.8 274.96 226.19 274.51 226.45L269.68 229.24C269.23 229.5 268.54 229.53 268.15 229.3Z" fill="#06033E"/>
<path d="M260.51 224.89L255.63 222.07C255.24 221.84 255.29 221.45 255.74 221.19L260.57 218.4C261.02 218.14 261.71 218.11 262.1 218.34L266.98 221.16C267.37 221.39 267.32 221.78 266.87 222.04L262.04 224.83C261.59 225.09 260.9 225.12 260.51 224.89Z" fill="#06033E"/>
<path d="M252.85 220.47L242.35 214.41C241.96 214.18 242.01 213.79 242.46 213.53L247.29 210.74C247.74 210.48 248.43 210.45 248.82 210.68L259.32 216.74C259.71 216.97 259.66 217.36 259.21 217.62L254.38 220.41C253.93 220.67 253.24 220.7 252.85 220.47Z" fill="#06033E"/>
<path d="M258.2 215.09L249.68 210.17C249.29 209.94 249.34 209.55 249.79 209.29L254.62 206.5C255.07 206.24 255.76 206.21 256.15 206.44L264.67 211.36C265.06 211.59 265.01 211.98 264.56 212.24L259.73 215.03C259.28 215.29 258.59 215.32 258.2 215.09Z" fill="#06033E"/>
<path d="M275.68 233.65L270.8 230.83C270.41 230.6 270.46 230.21 270.91 229.95L275.74 227.16C276.19 226.9 276.88 226.87 277.27 227.1L282.15 229.92C282.54 230.15 282.49 230.54 282.04 230.8L277.21 233.59C276.76 233.85 276.07 233.88 275.68 233.65Z" fill="#06033E"/>
<path d="M283.21 237.99L278.33 235.17C277.94 234.94 277.99 234.55 278.44 234.29L283.27 231.5C283.72 231.24 284.41 231.21 284.8 231.44L289.68 234.26C290.07 234.49 290.02 234.88 289.57 235.14L284.74 237.93C284.29 238.19 283.6 238.22 283.21 237.99Z" fill="#06033E"/>
<path d="M290.74 242.34L285.86 239.52C285.47 239.29 285.52 238.9 285.97 238.64L290.8 235.85C291.25 235.59 291.94 235.56 292.33 235.79L297.21 238.61C297.6 238.84 297.55 239.23 297.1 239.49L292.27 242.28C291.82 242.54 291.13 242.57 290.74 242.34Z" fill="#06033E"/>
<path d="M298.27 246.69L293.39 243.87C293 243.64 293.05 243.25 293.5 242.99L298.33 240.2C298.78 239.94 299.47 239.91 299.86 240.14L304.74 242.96C305.13 243.19 305.08 243.58 304.63 243.84L299.8 246.63C299.35 246.89 298.66 246.92 298.27 246.69Z" fill="#06033E"/>
<path d="M305.8 251.04L300.92 248.22C300.53 247.99 300.58 247.6 301.03 247.34L305.86 244.55C306.31 244.29 307 244.26 307.39 244.49L312.27 247.31C312.66 247.54 312.61 247.93 312.16 248.19L307.33 250.98C306.88 251.24 306.19 251.27 305.8 251.04Z" fill="#06033E"/>
<path d="M313.33 255.38L308.45 252.56C308.06 252.33 308.11 251.94 308.56 251.68L313.39 248.89C313.84 248.63 314.53 248.6 314.92 248.83L319.8 251.65C320.19 251.88 320.14 252.27 319.69 252.53L314.86 255.32C314.41 255.58 313.72 255.61 313.33 255.38Z" fill="#06033E"/>
<path d="M320.86 259.73L315.98 256.91C315.59 256.68 315.64 256.29 316.09 256.03L320.92 253.24C321.37 252.98 322.06 252.95 322.45 253.18L327.33 256C327.72 256.23 327.67 256.62 327.22 256.88L322.39 259.67C321.94 259.93 321.25 259.96 320.86 259.73Z" fill="#06033E"/>
<path d="M328.39 264.08L323.51 261.26C323.12 261.03 323.17 260.64 323.62 260.38L328.45 257.59C328.9 257.33 329.59 257.3 329.98 257.53L334.86 260.35C335.25 260.58 335.2 260.97 334.75 261.23L329.92 264.02C329.47 264.28 328.78 264.31 328.39 264.08Z" fill="#06033E"/>
<path d="M335.92 268.43L331.04 265.61C330.65 265.38 330.7 264.99 331.15 264.73L335.98 261.94C336.43 261.68 337.12 261.65 337.51 261.88L342.39 264.7C342.78 264.93 342.73 265.32 342.28 265.58L337.45 268.37C337 268.63 336.31 268.66 335.92 268.43Z" fill="#06033E"/>
<path d="M349.31 276.16L338.67 270.02C338.28 269.79 338.33 269.4 338.78 269.14L343.61 266.35C344.06 266.09 344.75 266.06 345.14 266.29L355.78 272.43C356.17 272.66 356.12 273.05 355.67 273.31L350.84 276.1C350.39 276.36 349.7 276.39 349.31 276.16Z" fill="#06033E"/>
<path d="M363.97 267.69L354.99 262.51C354.6 262.28 354.65 261.89 355.1 261.63L359.93 258.84C360.38 258.58 361.07 258.55 361.46 258.78L370.44 263.96C370.83 264.19 370.78 264.58 370.33 264.84L365.5 267.63C365.05 267.89 364.36 267.92 363.97 267.69Z" fill="#06033E"/>
<path d="M288.87 232.79L283.99 229.97C283.6 229.74 283.65 229.35 284.1 229.09L288.93 226.3C289.38 226.04 290.07 226.01 290.46 226.24L295.34 229.06C295.73 229.29 295.68 229.68 295.23 229.94L290.4 232.73C289.95 232.99 289.26 233.02 288.87 232.79Z" fill="#06033E"/>
<path d="M281.15 228.34L276.27 225.52C275.88 225.29 275.93 224.9 276.38 224.64L281.21 221.85C281.66 221.59 282.35 221.56 282.74 221.79L287.62 224.61C288.01 224.84 287.96 225.23 287.51 225.49L282.68 228.28C282.23 228.54 281.54 228.57 281.15 228.34Z" fill="#06033E"/>
<path d="M273.43 223.88L268.55 221.06C268.16 220.83 268.21 220.44 268.66 220.18L273.49 217.39C273.94 217.13 274.63 217.1 275.02 217.33L279.9 220.15C280.29 220.38 280.24 220.77 279.79 221.03L274.96 223.82C274.51 224.08 273.82 224.11 273.43 223.88Z" fill="#06033E"/>
<path d="M265.72 219.43L260.84 216.61C260.45 216.38 260.5 215.99 260.95 215.73L265.78 212.94C266.23 212.68 266.92 212.65 267.31 212.88L272.19 215.7C272.58 215.93 272.53 216.32 272.08 216.58L267.25 219.37C266.8 219.63 266.11 219.66 265.72 219.43Z" fill="#06033E"/>
<path d="M296.4 237.14L291.52 234.32C291.13 234.09 291.18 233.7 291.63 233.44L296.46 230.65C296.91 230.39 297.6 230.36 297.99 230.59L302.87 233.41C303.26 233.64 303.21 234.03 302.76 234.29L297.93 237.08C297.48 237.34 296.79 237.37 296.4 237.14Z" fill="#06033E"/>
<path d="M303.93 241.49L299.05 238.67C298.66 238.44 298.71 238.05 299.16 237.79L303.99 235C304.44 234.74 305.13 234.71 305.52 234.94L310.4 237.76C310.79 237.99 310.74 238.38 310.29 238.64L305.46 241.43C305.01 241.69 304.32 241.72 303.93 241.49Z" fill="#06033E"/>
<path d="M311.46 245.84L306.58 243.02C306.19 242.79 306.24 242.4 306.69 242.14L311.52 239.35C311.97 239.09 312.66 239.06 313.05 239.29L317.93 242.11C318.32 242.34 318.27 242.73 317.82 242.99L312.99 245.78C312.54 246.04 311.85 246.07 311.46 245.84Z" fill="#06033E"/>
<path d="M318.99 250.19L314.11 247.37C313.72 247.14 313.77 246.75 314.22 246.49L319.05 243.7C319.5 243.44 320.19 243.41 320.58 243.64L325.46 246.46C325.85 246.69 325.8 247.08 325.35 247.34L320.52 250.13C320.07 250.39 319.38 250.42 318.99 250.19Z" fill="#06033E"/>
<path d="M326.52 254.53L321.64 251.71C321.25 251.48 321.3 251.09 321.75 250.83L326.58 248.04C327.03 247.78 327.72 247.75 328.11 247.98L332.99 250.8C333.38 251.03 333.33 251.42 332.88 251.68L328.05 254.47C327.6 254.73 326.91 254.76 326.52 254.53Z" fill="#06033E"/>
<path d="M334.05 258.88L329.17 256.06C328.78 255.83 328.83 255.44 329.28 255.18L334.11 252.39C334.56 252.13 335.25 252.1 335.64 252.33L340.52 255.15C340.91 255.38 340.86 255.77 340.41 256.03L335.58 258.82C335.13 259.08 334.44 259.11 334.05 258.88Z" fill="#06033E"/>
<path d="M341.58 263.23L336.7 260.41C336.31 260.18 336.36 259.79 336.81 259.53L341.64 256.74C342.09 256.48 342.78 256.45 343.17 256.68L348.05 259.5C348.44 259.73 348.39 260.12 347.94 260.38L343.11 263.17C342.66 263.43 341.97 263.46 341.58 263.23Z" fill="#06033E"/>
<path d="M349.11 267.58L344.23 264.76C343.84 264.53 343.89 264.14 344.34 263.88L349.17 261.09C349.62 260.83 350.31 260.8 350.7 261.03L355.58 263.85C355.97 264.08 355.92 264.47 355.47 264.73L350.64 267.52C350.19 267.78 349.5 267.81 349.11 267.58Z" fill="#06033E"/>
<path d="M356.64 271.92L351.76 269.1C351.37 268.87 351.42 268.48 351.87 268.22L356.7 265.43C357.15 265.17 357.84 265.14 358.23 265.37L363.11 268.19C363.5 268.42 363.45 268.81 363 269.07L358.17 271.86C357.72 272.12 357.03 272.15 356.64 271.92Z" fill="#06033E"/>
<path d="M284.9 222.04L280.02 219.22C279.63 218.99 279.68 218.6 280.13 218.34L284.96 215.55C285.41 215.29 286.1 215.26 286.49 215.49L291.37 218.31C291.76 218.54 291.71 218.93 291.26 219.19L286.43 221.98C285.98 222.24 285.29 222.27 284.9 222.04Z" fill="#06033E"/>
<path d="M277.41 217.72L272.53 214.9C272.14 214.67 272.19 214.28 272.64 214.02L277.47 211.23C277.92 210.97 278.61 210.94 279 211.17L283.88 213.99C284.27 214.22 284.22 214.61 283.77 214.87L278.94 217.66C278.49 217.92 277.8 217.95 277.41 217.72Z" fill="#06033E"/>
<path d="M269.92 213.39L265.04 210.57C264.65 210.34 264.7 209.95 265.15 209.69L269.98 206.9C270.43 206.64 271.12 206.61 271.51 206.84L276.39 209.66C276.78 209.89 276.73 210.28 276.28 210.54L271.45 213.33C271 213.59 270.31 213.62 269.92 213.39Z" fill="#06033E"/>
<path d="M262.43 209.06L257.55 206.24C257.16 206.01 257.21 205.62 257.66 205.36L262.49 202.57C262.94 202.31 263.63 202.28 264.02 202.51L268.9 205.33C269.29 205.56 269.24 205.95 268.79 206.21L263.96 209C263.51 209.26 262.82 209.29 262.43 209.06Z" fill="#06033E"/>
<path d="M270.13 204.61L265.25 201.79C264.86 201.56 264.91 201.17 265.36 200.91L266.96 199.99C267.41 199.73 268.1 199.7 268.49 199.93L273.37 202.75C273.76 202.98 273.71 203.37 273.26 203.63L271.66 204.55C271.21 204.81 270.52 204.84 270.13 204.61Z" fill="#06033E"/>
<path d="M279.91 210.26L275.03 207.44C274.64 207.21 274.69 206.82 275.14 206.56L276.74 205.64C277.19 205.38 277.88 205.35 278.27 205.58L283.15 208.4C283.54 208.63 283.49 209.02 283.04 209.28L281.44 210.2C280.99 210.46 280.3 210.49 279.91 210.26Z" fill="#06033E"/>
<path d="M287.37 214.57L282.49 211.75C282.1 211.52 282.15 211.13 282.6 210.87L284.2 209.95C284.65 209.69 285.34 209.66 285.73 209.89L290.61 212.71C291 212.94 290.95 213.33 290.5 213.59L288.9 214.51C288.45 214.77 287.76 214.8 287.37 214.57Z" fill="#06033E"/>
<path d="M294.83 218.88L289.95 216.06C289.56 215.83 289.61 215.44 290.06 215.18L291.66 214.26C292.11 214 292.8 213.97 293.19 214.2L298.07 217.02C298.46 217.25 298.41 217.64 297.96 217.9L296.36 218.82C295.91 219.08 295.22 219.11 294.83 218.88Z" fill="#06033E"/>
<path d="M302.29 223.18L297.41 220.36C297.02 220.13 297.07 219.74 297.52 219.48L299.12 218.56C299.57 218.3 300.26 218.27 300.65 218.5L305.53 221.32C305.92 221.55 305.87 221.94 305.42 222.2L303.82 223.12C303.37 223.38 302.68 223.41 302.29 223.18Z" fill="#06033E"/>
<path d="M343.95 247.23L339.07 244.41C338.68 244.18 338.73 243.79 339.18 243.53L340.78 242.61C341.23 242.35 341.92 242.32 342.31 242.55L347.19 245.37C347.58 245.6 347.53 245.99 347.08 246.25L345.48 247.17C345.03 247.43 344.34 247.46 343.95 247.23Z" fill="#06033E"/>
<path d="M351.41 251.54L346.53 248.72C346.14 248.49 346.19 248.1 346.64 247.84L348.24 246.92C348.69 246.66 349.38 246.63 349.77 246.86L354.65 249.68C355.04 249.91 354.99 250.3 354.54 250.56L352.94 251.48C352.49 251.74 351.8 251.77 351.41 251.54Z" fill="#06033E"/>
<path d="M358.87 255.85L353.99 253.03C353.6 252.8 353.65 252.41 354.1 252.15L355.7 251.23C356.15 250.97 356.84 250.94 357.23 251.17L362.11 253.99C362.5 254.22 362.45 254.61 362 254.87L360.4 255.79C359.95 256.05 359.26 256.08 358.87 255.85Z" fill="#06033E"/>
<path d="M366.34 260.16L361.46 257.34C361.07 257.11 361.12 256.72 361.57 256.46L363.17 255.54C363.62 255.28 364.31 255.25 364.7 255.48L369.58 258.3C369.97 258.53 369.92 258.92 369.47 259.18L367.87 260.1C367.42 260.36 366.73 260.39 366.34 260.16Z" fill="#06033E"/>
<path d="M292.43 226.39L287.55 223.57C287.16 223.34 287.21 222.95 287.66 222.69L292.49 219.9C292.94 219.64 293.63 219.61 294.02 219.84L298.9 222.66C299.29 222.89 299.24 223.28 298.79 223.54L293.96 226.33C293.51 226.59 292.82 226.62 292.43 226.39Z" fill="#06033E"/>
<path d="M299.96 230.74L295.08 227.92C294.69 227.69 294.74 227.3 295.19 227.04L300.02 224.25C300.47 223.99 301.16 223.96 301.55 224.19L306.43 227.01C306.82 227.24 306.77 227.63 306.32 227.89L301.49 230.68C301.04 230.94 300.35 230.97 299.96 230.74Z" fill="#06033E"/>
<path d="M307.49 235.08L302.61 232.26C302.22 232.03 302.27 231.64 302.72 231.38L307.55 228.59C308 228.33 308.69 228.3 309.08 228.53L313.96 231.35C314.35 231.58 314.3 231.97 313.85 232.23L309.02 235.02C308.57 235.28 307.88 235.31 307.49 235.08Z" fill="#06033E"/>
<path d="M315.03 239.43L310.15 236.61C309.76 236.38 309.81 235.99 310.26 235.73L315.09 232.94C315.54 232.68 316.23 232.65 316.62 232.88L321.5 235.7C321.89 235.93 321.84 236.32 321.39 236.58L316.56 239.37C316.11 239.63 315.42 239.66 315.03 239.43Z" fill="#06033E"/>
<path d="M322.56 243.78L317.68 240.96C317.29 240.73 317.34 240.34 317.79 240.08L322.62 237.29C323.07 237.03 323.76 237 324.15 237.23L329.03 240.05C329.42 240.28 329.37 240.67 328.92 240.93L324.09 243.72C323.64 243.98 322.95 244.01 322.56 243.78Z" fill="#06033E"/>
<path d="M330.09 248.13L325.21 245.31C324.82 245.08 324.87 244.69 325.32 244.43L330.15 241.64C330.6 241.38 331.29 241.35 331.68 241.58L336.56 244.4C336.95 244.63 336.9 245.02 336.45 245.28L331.62 248.07C331.17 248.33 330.48 248.36 330.09 248.13Z" fill="#06033E"/>
<path d="M337.62 252.47L332.74 249.65C332.35 249.42 332.4 249.03 332.85 248.77L337.68 245.98C338.13 245.72 338.82 245.69 339.21 245.92L344.09 248.74C344.48 248.97 344.43 249.36 343.98 249.62L339.15 252.41C338.7 252.67 338.01 252.7 337.62 252.47Z" fill="#06033E"/>
<path d="M345.15 256.82L340.27 254C339.88 253.77 339.93 253.38 340.38 253.12L345.21 250.33C345.66 250.07 346.35 250.04 346.74 250.27L351.62 253.09C352.01 253.32 351.96 253.71 351.51 253.97L346.68 256.76C346.23 257.02 345.54 257.05 345.15 256.82Z" fill="#06033E"/>
<path d="M352.68 261.17L347.8 258.35C347.41 258.12 347.46 257.73 347.91 257.47L352.74 254.68C353.19 254.42 353.88 254.39 354.27 254.62L359.15 257.44C359.54 257.67 359.49 258.06 359.04 258.32L354.21 261.11C353.76 261.37 353.07 261.4 352.68 261.17Z" fill="#06033E"/>
<path d="M249.38 226.93L235.02 218.64C234.63 218.41 234.68 218.02 235.13 217.76L239.96 214.97C240.41 214.71 241.1 214.68 241.49 214.91L255.85 223.2C256.24 223.43 256.19 223.82 255.74 224.08L250.91 226.87C250.46 227.13 249.77 227.16 249.38 226.93Z" fill="#06033E"/>
<path d="M341.89 280.34L327.53 272.05C327.14 271.82 327.19 271.43 327.64 271.17L332.47 268.38C332.92 268.12 333.61 268.09 334 268.32L348.36 276.61C348.75 276.84 348.7 277.23 348.25 277.49L343.42 280.28C342.97 280.54 342.28 280.57 341.89 280.34Z" fill="#06033E"/>
<path d="M311.78 272.55L306.9 269.73C306.51 269.5 306.56 269.11 307.01 268.85L312.77 265.53C313.22 265.27 313.91 265.24 314.3 265.47L319.18 268.29C319.57 268.52 319.52 268.91 319.07 269.17L313.31 272.49C312.86 272.75 312.17 272.78 311.78 272.55Z" fill="#06033E"/>
<path d="M257.09 240.98L249.29 236.48C248.9 236.25 248.95 235.86 249.4 235.6L255.16 232.28C255.61 232.02 256.3 231.99 256.69 232.22L264.49 236.72C264.88 236.95 264.83 237.34 264.38 237.6L258.62 240.92C258.17 241.18 257.48 241.21 257.09 240.98Z" fill="#06033E"/>
<path d="M304.52 268.36L296.72 263.86C296.33 263.63 296.38 263.24 296.83 262.98L302.59 259.66C303.04 259.4 303.73 259.37 304.12 259.6L311.92 264.1C312.31 264.33 312.26 264.72 311.81 264.98L306.05 268.3C305.6 268.56 304.91 268.59 304.52 268.36Z" fill="#06033E"/>
<path d="M267.96 247.25L260.16 242.75C259.77 242.52 259.82 242.13 260.27 241.87L266.03 238.55C266.48 238.29 267.17 238.26 267.56 238.49L275.36 242.99C275.75 243.22 275.7 243.61 275.25 243.87L269.49 247.19C269.04 247.45 268.35 247.48 267.96 247.25Z" fill="#06033E"/>
<path d="M267.61 238.51L301.51 258.09C301.93 258.33 301.93 258.73 301.51 258.97L295.64 262.36C295.22 262.6 294.54 262.6 294.12 262.36L260.22 242.79L267.61 238.52V238.51Z" fill="#06033E"/>
<path d="M332.83 280.44L338.26 283.58C338.58 283.77 338.54 284.09 338.17 284.3L335.82 285.66C335.45 285.87 334.89 285.9 334.57 285.71L329.14 282.57C328.82 282.38 328.86 282.06 329.23 281.85L331.58 280.49C331.95 280.28 332.51 280.25 332.83 280.44Z" fill="#06033E"/>
<path d="M325.23 276.05L330.66 279.19C330.98 279.38 330.94 279.7 330.57 279.91L328.22 281.27C327.85 281.48 327.29 281.51 326.97 281.32L321.54 278.18C321.22 277.99 321.26 277.67 321.63 277.46L323.98 276.1C324.35 275.89 324.91 275.86 325.23 276.05Z" fill="#06033E"/>
<path d="M317.7 271.7L323.13 274.84C323.45 275.03 323.41 275.35 323.04 275.56L320.69 276.92C320.32 277.13 319.76 277.16 319.44 276.97L314.01 273.83C313.69 273.64 313.73 273.32 314.1 273.11L316.45 271.75C316.82 271.54 317.38 271.51 317.7 271.7Z" fill="#06033E"/>
<path d="M329.39 273.65L334.82 276.79C335.14 276.98 335.1 277.3 334.73 277.51L332.38 278.87C332.01 279.08 331.45 279.11 331.13 278.92L325.7 275.78C325.38 275.59 325.42 275.27 325.79 275.06L328.14 273.7C328.51 273.49 329.07 273.46 329.39 273.65Z" fill="#06033E"/>
</g>
<g opacity="0.4">
<path d="M231.58 226.25L226.7 223.43C226.31 223.2 226.36 222.81 226.81 222.55L232.57 219.23C233.02 218.97 233.71 218.94 234.1 219.17L238.98 221.99C239.37 222.22 239.32 222.61 238.87 222.87L233.11 226.19C232.66 226.45 231.97 226.48 231.58 226.25Z" fill="#06033E"/>
<path d="M239.11 230.6L234.23 227.78C233.84 227.55 233.89 227.16 234.34 226.9L240.1 223.58C240.55 223.32 241.24 223.29 241.63 223.52L246.51 226.34C246.9 226.57 246.85 226.96 246.4 227.22L240.64 230.54C240.19 230.8 239.5 230.83 239.11 230.6Z" fill="#06033E"/>
<path d="M246.64 234.95L241.76 232.13C241.37 231.9 241.42 231.51 241.87 231.25L247.63 227.93C248.08 227.67 248.77 227.64 249.16 227.87L254.04 230.69C254.43 230.92 254.38 231.31 253.93 231.57L248.17 234.89C247.72 235.15 247.03 235.18 246.64 234.95Z" fill="#06033E"/>
<path d="M257.06 231.36L252.18 228.54C251.79 228.31 251.84 227.92 252.29 227.66L257.12 224.87C257.57 224.61 258.26 224.58 258.65 224.81L263.53 227.63C263.92 227.86 263.87 228.25 263.42 228.51L258.59 231.3C258.14 231.56 257.45 231.59 257.06 231.36Z" fill="#06033E"/>
<path d="M264.59 235.7L259.71 232.88C259.32 232.65 259.37 232.26 259.82 232L264.65 229.21C265.1 228.95 265.79 228.92 266.18 229.15L271.06 231.97C271.45 232.2 271.4 232.59 270.95 232.85L266.12 235.64C265.67 235.9 264.98 235.93 264.59 235.7Z" fill="#06033E"/>
<path d="M272.12 240.05L267.24 237.23C266.85 237 266.9 236.61 267.35 236.35L272.18 233.56C272.63 233.3 273.32 233.27 273.71 233.5L278.59 236.32C278.98 236.55 278.93 236.94 278.48 237.2L273.65 239.99C273.2 240.25 272.51 240.28 272.12 240.05Z" fill="#06033E"/>
<path d="M279.65 244.4L274.77 241.58C274.38 241.35 274.43 240.96 274.88 240.7L279.71 237.91C280.16 237.65 280.85 237.62 281.24 237.85L286.12 240.67C286.51 240.9 286.46 241.29 286.01 241.55L281.18 244.34C280.73 244.6 280.04 244.63 279.65 244.4Z" fill="#06033E"/>
<path d="M287.18 248.75L282.3 245.93C281.91 245.7 281.96 245.31 282.41 245.05L287.24 242.26C287.69 242 288.38 241.97 288.77 242.2L293.65 245.02C294.04 245.25 293.99 245.64 293.54 245.9L288.71 248.69C288.26 248.95 287.57 248.98 287.18 248.75Z" fill="#06033E"/>
<path d="M294.71 253.09L289.83 250.27C289.44 250.04 289.49 249.65 289.94 249.39L294.77 246.6C295.22 246.34 295.91 246.31 296.3 246.54L301.18 249.36C301.57 249.59 301.52 249.98 301.07 250.24L296.24 253.03C295.79 253.29 295.1 253.32 294.71 253.09Z" fill="#06033E"/>
<path d="M302.24 257.44L297.36 254.62C296.97 254.39 297.02 254 297.47 253.74L302.3 250.95C302.75 250.69 303.44 250.66 303.83 250.89L308.71 253.71C309.1 253.94 309.05 254.33 308.6 254.59L303.77 257.38C303.32 257.64 302.63 257.67 302.24 257.44Z" fill="#06033E"/>
<path d="M309.77 261.79L304.89 258.97C304.5 258.74 304.55 258.35 305 258.09L309.83 255.3C310.28 255.04 310.97 255.01 311.36 255.24L316.24 258.06C316.63 258.29 316.58 258.68 316.13 258.94L311.3 261.73C310.85 261.99 310.16 262.02 309.77 261.79Z" fill="#06033E"/>
<path d="M317.3 266.14L312.42 263.32C312.03 263.09 312.08 262.7 312.53 262.44L317.36 259.65C317.81 259.39 318.5 259.36 318.89 259.59L323.77 262.41C324.16 262.64 324.11 263.03 323.66 263.29L318.83 266.08C318.38 266.34 317.69 266.37 317.3 266.14Z" fill="#06033E"/>
<path d="M324.83 270.48L319.95 267.66C319.56 267.43 319.61 267.04 320.06 266.78L324.89 263.99C325.34 263.73 326.03 263.7 326.42 263.93L331.3 266.75C331.69 266.98 331.64 267.37 331.19 267.63L326.36 270.42C325.91 270.68 325.22 270.71 324.83 270.48Z" fill="#06033E"/>
<path d="M268.15 229.3L263.27 226.48C262.88 226.25 262.93 225.86 263.38 225.6L268.21 222.81C268.66 222.55 269.35 222.52 269.74 222.75L274.62 225.57C275.01 225.8 274.96 226.19 274.51 226.45L269.68 229.24C269.23 229.5 268.54 229.53 268.15 229.3Z" fill="#06033E"/>
<path d="M260.51 224.89L255.63 222.07C255.24 221.84 255.29 221.45 255.74 221.19L260.57 218.4C261.02 218.14 261.71 218.11 262.1 218.34L266.98 221.16C267.37 221.39 267.32 221.78 266.87 222.04L262.04 224.83C261.59 225.09 260.9 225.12 260.51 224.89Z" fill="#06033E"/>
<path d="M252.85 220.47L242.35 214.41C241.96 214.18 242.01 213.79 242.46 213.53L247.29 210.74C247.74 210.48 248.43 210.45 248.82 210.68L259.32 216.74C259.71 216.97 259.66 217.36 259.21 217.62L254.38 220.41C253.93 220.67 253.24 220.7 252.85 220.47Z" fill="#06033E"/>
<path d="M258.2 215.09L249.68 210.17C249.29 209.94 249.34 209.55 249.79 209.29L254.62 206.5C255.07 206.24 255.76 206.21 256.15 206.44L264.67 211.36C265.06 211.59 265.01 211.98 264.56 212.24L259.73 215.03C259.28 215.29 258.59 215.32 258.2 215.09Z" fill="#06033E"/>
<path d="M275.68 233.65L270.8 230.83C270.41 230.6 270.46 230.21 270.91 229.95L275.74 227.16C276.19 226.9 276.88 226.87 277.27 227.1L282.15 229.92C282.54 230.15 282.49 230.54 282.04 230.8L277.21 233.59C276.76 233.85 276.07 233.88 275.68 233.65Z" fill="#06033E"/>
<path d="M283.21 237.99L278.33 235.17C277.94 234.94 277.99 234.55 278.44 234.29L283.27 231.5C283.72 231.24 284.41 231.21 284.8 231.44L289.68 234.26C290.07 234.49 290.02 234.88 289.57 235.14L284.74 237.93C284.29 238.19 283.6 238.22 283.21 237.99Z" fill="#06033E"/>
<path d="M290.74 242.34L285.86 239.52C285.47 239.29 285.52 238.9 285.97 238.64L290.8 235.85C291.25 235.59 291.94 235.56 292.33 235.79L297.21 238.61C297.6 238.84 297.55 239.23 297.1 239.49L292.27 242.28C291.82 242.54 291.13 242.57 290.74 242.34Z" fill="#06033E"/>
<path d="M298.27 246.69L293.39 243.87C293 243.64 293.05 243.25 293.5 242.99L298.33 240.2C298.78 239.94 299.47 239.91 299.86 240.14L304.74 242.96C305.13 243.19 305.08 243.58 304.63 243.84L299.8 246.63C299.35 246.89 298.66 246.92 298.27 246.69Z" fill="#06033E"/>
<path d="M305.8 251.04L300.92 248.22C300.53 247.99 300.58 247.6 301.03 247.34L305.86 244.55C306.31 244.29 307 244.26 307.39 244.49L312.27 247.31C312.66 247.54 312.61 247.93 312.16 248.19L307.33 250.98C306.88 251.24 306.19 251.27 305.8 251.04Z" fill="#06033E"/>
<path d="M313.33 255.38L308.45 252.56C308.06 252.33 308.11 251.94 308.56 251.68L313.39 248.89C313.84 248.63 314.53 248.6 314.92 248.83L319.8 251.65C320.19 251.88 320.14 252.27 319.69 252.53L314.86 255.32C314.41 255.58 313.72 255.61 313.33 255.38Z" fill="#06033E"/>
<path d="M320.86 259.73L315.98 256.91C315.59 256.68 315.64 256.29 316.09 256.03L320.92 253.24C321.37 252.98 322.06 252.95 322.45 253.18L327.33 256C327.72 256.23 327.67 256.62 327.22 256.88L322.39 259.67C321.94 259.93 321.25 259.96 320.86 259.73Z" fill="#06033E"/>
<path d="M328.39 264.08L323.51 261.26C323.12 261.03 323.17 260.64 323.62 260.38L328.45 257.59C328.9 257.33 329.59 257.3 329.98 257.53L334.86 260.35C335.25 260.58 335.2 260.97 334.75 261.23L329.92 264.02C329.47 264.28 328.78 264.31 328.39 264.08Z" fill="#06033E"/>
<path d="M335.92 268.43L331.04 265.61C330.65 265.38 330.7 264.99 331.15 264.73L335.98 261.94C336.43 261.68 337.12 261.65 337.51 261.88L342.39 264.7C342.78 264.93 342.73 265.32 342.28 265.58L337.45 268.37C337 268.63 336.31 268.66 335.92 268.43Z" fill="#06033E"/>
<path d="M349.31 276.16L338.67 270.02C338.28 269.79 338.33 269.4 338.78 269.14L343.61 266.35C344.06 266.09 344.75 266.06 345.14 266.29L355.78 272.43C356.17 272.66 356.12 273.05 355.67 273.31L350.84 276.1C350.39 276.36 349.7 276.39 349.31 276.16Z" fill="#06033E"/>
<path d="M363.97 267.69L354.99 262.51C354.6 262.28 354.65 261.89 355.1 261.63L359.93 258.84C360.38 258.58 361.07 258.55 361.46 258.78L370.44 263.96C370.83 264.19 370.78 264.58 370.33 264.84L365.5 267.63C365.05 267.89 364.36 267.92 363.97 267.69Z" fill="#06033E"/>
<path d="M288.87 232.79L283.99 229.97C283.6 229.74 283.65 229.35 284.1 229.09L288.93 226.3C289.38 226.04 290.07 226.01 290.46 226.24L295.34 229.06C295.73 229.29 295.68 229.68 295.23 229.94L290.4 232.73C289.95 232.99 289.26 233.02 288.87 232.79Z" fill="#06033E"/>
<path d="M281.15 228.34L276.27 225.52C275.88 225.29 275.93 224.9 276.38 224.64L281.21 221.85C281.66 221.59 282.35 221.56 282.74 221.79L287.62 224.61C288.01 224.84 287.96 225.23 287.51 225.49L282.68 228.28C282.23 228.54 281.54 228.57 281.15 228.34Z" fill="#06033E"/>
<path d="M273.43 223.88L268.55 221.06C268.16 220.83 268.21 220.44 268.66 220.18L273.49 217.39C273.94 217.13 274.63 217.1 275.02 217.33L279.9 220.15C280.29 220.38 280.24 220.77 279.79 221.03L274.96 223.82C274.51 224.08 273.82 224.11 273.43 223.88Z" fill="#06033E"/>
<path d="M265.72 219.43L260.84 216.61C260.45 216.38 260.5 215.99 260.95 215.73L265.78 212.94C266.23 212.68 266.92 212.65 267.31 212.88L272.19 215.7C272.58 215.93 272.53 216.32 272.08 216.58L267.25 219.37C266.8 219.63 266.11 219.66 265.72 219.43Z" fill="#06033E"/>
<path d="M296.4 237.14L291.52 234.32C291.13 234.09 291.18 233.7 291.63 233.44L296.46 230.65C296.91 230.39 297.6 230.36 297.99 230.59L302.87 233.41C303.26 233.64 303.21 234.03 302.76 234.29L297.93 237.08C297.48 237.34 296.79 237.37 296.4 237.14Z" fill="#06033E"/>
<path d="M303.93 241.49L299.05 238.67C298.66 238.44 298.71 238.05 299.16 237.79L303.99 235C304.44 234.74 305.13 234.71 305.52 234.94L310.4 237.76C310.79 237.99 310.74 238.38 310.29 238.64L305.46 241.43C305.01 241.69 304.32 241.72 303.93 241.49Z" fill="#06033E"/>
<path d="M311.46 245.84L306.58 243.02C306.19 242.79 306.24 242.4 306.69 242.14L311.52 239.35C311.97 239.09 312.66 239.06 313.05 239.29L317.93 242.11C318.32 242.34 318.27 242.73 317.82 242.99L312.99 245.78C312.54 246.04 311.85 246.07 311.46 245.84Z" fill="#06033E"/>
<path d="M318.99 250.19L314.11 247.37C313.72 247.14 313.77 246.75 314.22 246.49L319.05 243.7C319.5 243.44 320.19 243.41 320.58 243.64L325.46 246.46C325.85 246.69 325.8 247.08 325.35 247.34L320.52 250.13C320.07 250.39 319.38 250.42 318.99 250.19Z" fill="#06033E"/>
<path d="M326.52 254.53L321.64 251.71C321.25 251.48 321.3 251.09 321.75 250.83L326.58 248.04C327.03 247.78 327.72 247.75 328.11 247.98L332.99 250.8C333.38 251.03 333.33 251.42 332.88 251.68L328.05 254.47C327.6 254.73 326.91 254.76 326.52 254.53Z" fill="#06033E"/>
<path d="M334.05 258.88L329.17 256.06C328.78 255.83 328.83 255.44 329.28 255.18L334.11 252.39C334.56 252.13 335.25 252.1 335.64 252.33L340.52 255.15C340.91 255.38 340.86 255.77 340.41 256.03L335.58 258.82C335.13 259.08 334.44 259.11 334.05 258.88Z" fill="#06033E"/>
<path d="M341.58 263.23L336.7 260.41C336.31 260.18 336.36 259.79 336.81 259.53L341.64 256.74C342.09 256.48 342.78 256.45 343.17 256.68L348.05 259.5C348.44 259.73 348.39 260.12 347.94 260.38L343.11 263.17C342.66 263.43 341.97 263.46 341.58 263.23Z" fill="#06033E"/>
<path d="M349.11 267.58L344.23 264.76C343.84 264.53 343.89 264.14 344.34 263.88L349.17 261.09C349.62 260.83 350.31 260.8 350.7 261.03L355.58 263.85C355.97 264.08 355.92 264.47 355.47 264.73L350.64 267.52C350.19 267.78 349.5 267.81 349.11 267.58Z" fill="#06033E"/>
<path d="M356.64 271.92L351.76 269.1C351.37 268.87 351.42 268.48 351.87 268.22L356.7 265.43C357.15 265.17 357.84 265.14 358.23 265.37L363.11 268.19C363.5 268.42 363.45 268.81 363 269.07L358.17 271.86C357.72 272.12 357.03 272.15 356.64 271.92Z" fill="#06033E"/>
<path d="M284.9 222.04L280.02 219.22C279.63 218.99 279.68 218.6 280.13 218.34L284.96 215.55C285.41 215.29 286.1 215.26 286.49 215.49L291.37 218.31C291.76 218.54 291.71 218.93 291.26 219.19L286.43 221.98C285.98 222.24 285.29 222.27 284.9 222.04Z" fill="#06033E"/>
<path d="M277.41 217.72L272.53 214.9C272.14 214.67 272.19 214.28 272.64 214.02L277.47 211.23C277.92 210.97 278.61 210.94 279 211.17L283.88 213.99C284.27 214.22 284.22 214.61 283.77 214.87L278.94 217.66C278.49 217.92 277.8 217.95 277.41 217.72Z" fill="#06033E"/>
<path d="M269.92 213.39L265.04 210.57C264.65 210.34 264.7 209.95 265.15 209.69L269.98 206.9C270.43 206.64 271.12 206.61 271.51 206.84L276.39 209.66C276.78 209.89 276.73 210.28 276.28 210.54L271.45 213.33C271 213.59 270.31 213.62 269.92 213.39Z" fill="#06033E"/>
<path d="M262.43 209.06L257.55 206.24C257.16 206.01 257.21 205.62 257.66 205.36L262.49 202.57C262.94 202.31 263.63 202.28 264.02 202.51L268.9 205.33C269.29 205.56 269.24 205.95 268.79 206.21L263.96 209C263.51 209.26 262.82 209.29 262.43 209.06Z" fill="#06033E"/>
<path d="M270.13 204.61L265.25 201.79C264.86 201.56 264.91 201.17 265.36 200.91L266.96 199.99C267.41 199.73 268.1 199.7 268.49 199.93L273.37 202.75C273.76 202.98 273.71 203.37 273.26 203.63L271.66 204.55C271.21 204.81 270.52 204.84 270.13 204.61Z" fill="#06033E"/>
<path d="M279.91 210.26L275.03 207.44C274.64 207.21 274.69 206.82 275.14 206.56L276.74 205.64C277.19 205.38 277.88 205.35 278.27 205.58L283.15 208.4C283.54 208.63 283.49 209.02 283.04 209.28L281.44 210.2C280.99 210.46 280.3 210.49 279.91 210.26Z" fill="#06033E"/>
<path d="M287.37 214.57L282.49 211.75C282.1 211.52 282.15 211.13 282.6 210.87L284.2 209.95C284.65 209.69 285.34 209.66 285.73 209.89L290.61 212.71C291 212.94 290.95 213.33 290.5 213.59L288.9 214.51C288.45 214.77 287.76 214.8 287.37 214.57Z" fill="#06033E"/>
<path d="M294.83 218.88L289.95 216.06C289.56 215.83 289.61 215.44 290.06 215.18L291.66 214.26C292.11 214 292.8 213.97 293.19 214.2L298.07 217.02C298.46 217.25 298.41 217.64 297.96 217.9L296.36 218.82C295.91 219.08 295.22 219.11 294.83 218.88Z" fill="#06033E"/>
<path d="M302.29 223.18L297.41 220.36C297.02 220.13 297.07 219.74 297.52 219.48L299.12 218.56C299.57 218.3 300.26 218.27 300.65 218.5L305.53 221.32C305.92 221.55 305.87 221.94 305.42 222.2L303.82 223.12C303.37 223.38 302.68 223.41 302.29 223.18Z" fill="#06033E"/>
<path d="M343.95 247.23L339.07 244.41C338.68 244.18 338.73 243.79 339.18 243.53L340.78 242.61C341.23 242.35 341.92 242.32 342.31 242.55L347.19 245.37C347.58 245.6 347.53 245.99 347.08 246.25L345.48 247.17C345.03 247.43 344.34 247.46 343.95 247.23Z" fill="#06033E"/>
<path d="M351.41 251.54L346.53 248.72C346.14 248.49 346.19 248.1 346.64 247.84L348.24 246.92C348.69 246.66 349.38 246.63 349.77 246.86L354.65 249.68C355.04 249.91 354.99 250.3 354.54 250.56L352.94 251.48C352.49 251.74 351.8 251.77 351.41 251.54Z" fill="#06033E"/>
<path d="M358.87 255.85L353.99 253.03C353.6 252.8 353.65 252.41 354.1 252.15L355.7 251.23C356.15 250.97 356.84 250.94 357.23 251.17L362.11 253.99C362.5 254.22 362.45 254.61 362 254.87L360.4 255.79C359.95 256.05 359.26 256.08 358.87 255.85Z" fill="#06033E"/>
<path d="M366.34 260.16L361.46 257.34C361.07 257.11 361.12 256.72 361.57 256.46L363.17 255.54C363.62 255.28 364.31 255.25 364.7 255.48L369.58 258.3C369.97 258.53 369.92 258.92 369.47 259.18L367.87 260.1C367.42 260.36 366.73 260.39 366.34 260.16Z" fill="#06033E"/>
<path d="M292.43 226.39L287.55 223.57C287.16 223.34 287.21 222.95 287.66 222.69L292.49 219.9C292.94 219.64 293.63 219.61 294.02 219.84L298.9 222.66C299.29 222.89 299.24 223.28 298.79 223.54L293.96 226.33C293.51 226.59 292.82 226.62 292.43 226.39Z" fill="#06033E"/>
<path d="M299.96 230.74L295.08 227.92C294.69 227.69 294.74 227.3 295.19 227.04L300.02 224.25C300.47 223.99 301.16 223.96 301.55 224.19L306.43 227.01C306.82 227.24 306.77 227.63 306.32 227.89L301.49 230.68C301.04 230.94 300.35 230.97 299.96 230.74Z" fill="#06033E"/>
<path d="M307.49 235.08L302.61 232.26C302.22 232.03 302.27 231.64 302.72 231.38L307.55 228.59C308 228.33 308.69 228.3 309.08 228.53L313.96 231.35C314.35 231.58 314.3 231.97 313.85 232.23L309.02 235.02C308.57 235.28 307.88 235.31 307.49 235.08Z" fill="#06033E"/>
<path d="M315.03 239.43L310.15 236.61C309.76 236.38 309.81 235.99 310.26 235.73L315.09 232.94C315.54 232.68 316.23 232.65 316.62 232.88L321.5 235.7C321.89 235.93 321.84 236.32 321.39 236.58L316.56 239.37C316.11 239.63 315.42 239.66 315.03 239.43Z" fill="#06033E"/>
<path d="M322.56 243.78L317.68 240.96C317.29 240.73 317.34 240.34 317.79 240.08L322.62 237.29C323.07 237.03 323.76 237 324.15 237.23L329.03 240.05C329.42 240.28 329.37 240.67 328.92 240.93L324.09 243.72C323.64 243.98 322.95 244.01 322.56 243.78Z" fill="#06033E"/>
<path d="M330.09 248.13L325.21 245.31C324.82 245.08 324.87 244.69 325.32 244.43L330.15 241.64C330.6 241.38 331.29 241.35 331.68 241.58L336.56 244.4C336.95 244.63 336.9 245.02 336.45 245.28L331.62 248.07C331.17 248.33 330.48 248.36 330.09 248.13Z" fill="#06033E"/>
<path d="M337.62 252.47L332.74 249.65C332.35 249.42 332.4 249.03 332.85 248.77L337.68 245.98C338.13 245.72 338.82 245.69 339.21 245.92L344.09 248.74C344.48 248.97 344.43 249.36 343.98 249.62L339.15 252.41C338.7 252.67 338.01 252.7 337.62 252.47Z" fill="#06033E"/>
<path d="M345.15 256.82L340.27 254C339.88 253.77 339.93 253.38 340.38 253.12L345.21 250.33C345.66 250.07 346.35 250.04 346.74 250.27L351.62 253.09C352.01 253.32 351.96 253.71 351.51 253.97L346.68 256.76C346.23 257.02 345.54 257.05 345.15 256.82Z" fill="#06033E"/>
<path d="M352.68 261.17L347.8 258.35C347.41 258.12 347.46 257.73 347.91 257.47L352.74 254.68C353.19 254.42 353.88 254.39 354.27 254.62L359.15 257.44C359.54 257.67 359.49 258.06 359.04 258.32L354.21 261.11C353.76 261.37 353.07 261.4 352.68 261.17Z" fill="#06033E"/>
<path d="M249.38 226.93L235.02 218.64C234.63 218.41 234.68 218.02 235.13 217.76L239.96 214.97C240.41 214.71 241.1 214.68 241.49 214.91L255.85 223.2C256.24 223.43 256.19 223.82 255.74 224.08L250.91 226.87C250.46 227.13 249.77 227.16 249.38 226.93Z" fill="#06033E"/>
<path d="M341.89 280.34L327.53 272.05C327.14 271.82 327.19 271.43 327.64 271.17L332.47 268.38C332.92 268.12 333.61 268.09 334 268.32L348.36 276.61C348.75 276.84 348.7 277.23 348.25 277.49L343.42 280.28C342.97 280.54 342.28 280.57 341.89 280.34Z" fill="#06033E"/>
<path d="M311.78 272.55L306.9 269.73C306.51 269.5 306.56 269.11 307.01 268.85L312.77 265.53C313.22 265.27 313.91 265.24 314.3 265.47L319.18 268.29C319.57 268.52 319.52 268.91 319.07 269.17L313.31 272.49C312.86 272.75 312.17 272.78 311.78 272.55Z" fill="#06033E"/>
<path d="M257.09 240.98L249.29 236.48C248.9 236.25 248.95 235.86 249.4 235.6L255.16 232.28C255.61 232.02 256.3 231.99 256.69 232.22L264.49 236.72C264.88 236.95 264.83 237.34 264.38 237.6L258.62 240.92C258.17 241.18 257.48 241.21 257.09 240.98Z" fill="#06033E"/>
<path d="M304.52 268.36L296.72 263.86C296.33 263.63 296.38 263.24 296.83 262.98L302.59 259.66C303.04 259.4 303.73 259.37 304.12 259.6L311.92 264.1C312.31 264.33 312.26 264.72 311.81 264.98L306.05 268.3C305.6 268.56 304.91 268.59 304.52 268.36Z" fill="#06033E"/>
<path d="M267.96 247.25L260.16 242.75C259.77 242.52 259.82 242.13 260.27 241.87L266.03 238.55C266.48 238.29 267.17 238.26 267.56 238.49L275.36 242.99C275.75 243.22 275.7 243.61 275.25 243.87L269.49 247.19C269.04 247.45 268.35 247.48 267.96 247.25Z" fill="#06033E"/>
<path d="M267.61 238.51L301.51 258.09C301.93 258.33 301.93 258.73 301.51 258.97L295.64 262.36C295.22 262.6 294.54 262.6 294.12 262.36L260.22 242.79L267.61 238.52V238.51Z" fill="#06033E"/>
<path d="M332.83 280.44L338.26 283.58C338.58 283.77 338.54 284.09 338.17 284.3L335.82 285.66C335.45 285.87 334.89 285.9 334.57 285.71L329.14 282.57C328.82 282.38 328.86 282.06 329.23 281.85L331.58 280.49C331.95 280.28 332.51 280.25 332.83 280.44Z" fill="#06033E"/>
<path d="M325.23 276.05L330.66 279.19C330.98 279.38 330.94 279.7 330.57 279.91L328.22 281.27C327.85 281.48 327.29 281.51 326.97 281.32L321.54 278.18C321.22 277.99 321.26 277.67 321.63 277.46L323.98 276.1C324.35 275.89 324.91 275.86 325.23 276.05Z" fill="#06033E"/>
<path d="M317.7 271.7L323.13 274.84C323.45 275.03 323.41 275.35 323.04 275.56L320.69 276.92C320.32 277.13 319.76 277.16 319.44 276.97L314.01 273.83C313.69 273.64 313.73 273.32 314.1 273.11L316.45 271.75C316.82 271.54 317.38 271.51 317.7 271.7Z" fill="#06033E"/>
<path d="M329.39 273.65L334.82 276.79C335.14 276.98 335.1 277.3 334.73 277.51L332.38 278.87C332.01 279.08 331.45 279.11 331.13 278.92L325.7 275.78C325.38 275.59 325.42 275.27 325.79 275.06L328.14 273.7C328.51 273.49 329.07 273.46 329.39 273.65Z" fill="#06033E"/>
</g>
<path d="M409.09 264.86L265.23 181.8C262.97 180.49 261.79 177.31 262.59 174.69L295.12 69.0601C295.93 66.4401 298.41 65.3801 300.68 66.6801L444.54 149.74C446.8 151.05 447.98 154.23 447.18 156.85L414.65 262.48C413.84 265.1 411.36 266.16 409.09 264.86Z" fill="url(#paint7_radial_7_2280)"/>
<path d="M407.73 261.16L268.19 180.53C266.03 179.28 264.9 176.23 265.67 173.73L296.77 72.7501C297.54 70.2401 299.92 69.2201 302.09 70.4701L441.63 151.1C443.79 152.35 444.92 155.4 444.15 157.9L413.05 258.88C412.28 261.39 409.9 262.41 407.73 261.16Z" fill="url(#paint8_linear_7_2280)"/>
<path opacity="0.4" d="M407.73 261.16L268.19 180.53C266.03 179.28 264.9 176.23 265.67 173.73L296.77 72.7501C297.54 70.2401 299.92 69.2201 302.09 70.4701L441.63 151.1C443.79 152.35 444.92 155.4 444.15 157.9L413.05 258.88C412.28 261.39 409.9 262.41 407.73 261.16Z" fill="#06033E"/>
<path opacity="0.4" d="M407.73 261.16L268.19 180.53C266.03 179.28 264.9 176.23 265.67 173.73L296.77 72.7501C297.54 70.2401 299.92 69.2201 302.09 70.4701L441.63 151.1C443.79 152.35 444.92 155.4 444.15 157.9L413.05 258.88C412.28 261.39 409.9 262.41 407.73 261.16Z" fill="#06033E"/>
<path opacity="0.5" d="M400.23 230.3L305.77 175.76C304.28 174.9 303.51 172.81 304.04 171.09L325.4 101.73C325.93 100.01 327.56 99.31 329.05 100.17L423.51 154.71C425 155.57 425.77 157.66 425.24 159.38L403.88 228.74C403.35 230.46 401.72 231.16 400.23 230.3Z" fill="#06033E"/>
<path d="M387.47 231.97L293.01 177.43C291.52 176.57 290.75 174.48 291.28 172.76L312.64 103.4C313.17 101.68 314.8 100.98 316.29 101.84L410.75 156.38C412.24 157.24 413.01 159.33 412.48 161.05L391.12 230.41C390.59 232.13 388.96 232.83 387.47 231.97Z" fill="url(#paint9_radial_7_2280)"/>
<g opacity="0.5">
<path d="M387.47 231.97L293.01 177.43C291.52 176.57 290.75 174.48 291.28 172.76L312.64 103.4C313.17 101.68 314.8 100.98 316.29 101.84L410.75 156.38C412.24 157.24 413.01 159.33 412.48 161.05L391.12 230.41C390.59 232.13 388.96 232.83 387.47 231.97Z" fill="#06033E"/>
</g>
<path d="M410.75 156.38L316.29 101.84C315.36 101.3 314.37 101.38 313.63 101.93C314.08 101.92 314.54 102.02 314.99 102.28L409.45 156.82C410.94 157.68 411.71 159.77 411.18 161.49L389.82 230.85C389.62 231.49 389.27 231.99 388.83 232.32C389.84 232.29 390.75 231.6 391.11 230.41L412.47 161.05C413 159.33 412.22 157.24 410.74 156.38H410.75Z" fill="white"/>
<path opacity="0.4" d="M268.33 288.61C267.03 288.61 265.78 288.34 264.83 287.79L226.98 265.94C225.98 265.36 225.43 264.53 225.43 263.61C225.43 262.54 226.19 261.48 227.52 260.72L247 249.47C249.38 248.1 252.87 247.96 254.96 249.16L292.8 271.01C293.8 271.59 294.35 272.42 294.36 273.34C294.36 274.41 293.6 275.47 292.27 276.23L272.79 287.48C271.5 288.23 269.88 288.61 268.33 288.61ZM251.47 249.45C250.1 249.45 248.65 249.78 247.54 250.42L228.06 261.67C227.08 262.24 226.52 262.95 226.52 263.62C226.52 264.29 227.07 264.74 227.53 265L265.38 286.85C267.1 287.84 270.24 287.7 272.24 286.54L291.72 275.29C292.7 274.72 293.26 274.02 293.26 273.34C293.26 272.66 292.71 272.22 292.25 271.96L254.41 250.11C253.64 249.67 252.59 249.45 251.47 249.45Z" fill="#06033E"/>
<path d="M339.3 138.24L333.46 134.87C332.92 134.56 332.63 133.81 332.81 133.19C332.99 132.58 333.58 132.33 334.12 132.64L339.96 136.01C340.5 136.32 340.79 137.07 340.61 137.69C340.43 138.3 339.84 138.55 339.3 138.24Z" fill="white"/>
<path d="M353.21 146.27L344.6 141.3C344.06 140.99 343.77 140.24 343.95 139.62C344.13 139.01 344.72 138.76 345.26 139.07L353.87 144.04C354.41 144.35 354.7 145.1 354.52 145.72C354.34 146.33 353.75 146.58 353.21 146.27Z" fill="white"/>
<path d="M327.519 164.24L321.679 160.87C321.139 160.56 320.849 159.81 321.029 159.19C321.209 158.58 321.799 158.33 322.339 158.64L328.179 162.01C328.719 162.32 329.009 163.07 328.829 163.69C328.649 164.3 328.059 164.55 327.519 164.24Z" fill="white"/>
<path d="M339.92 171.39L331.31 166.42C330.77 166.11 330.48 165.36 330.66 164.74C330.84 164.13 331.43 163.88 331.97 164.19L340.58 169.16C341.12 169.47 341.41 170.22 341.23 170.84C341.05 171.45 340.46 171.7 339.92 171.39Z" fill="white"/>
<path d="M321.8 133.6L318.15 131.49C317.61 131.18 317.32 130.43 317.5 129.81C317.68 129.2 318.27 128.95 318.81 129.26L322.46 131.37C323 131.68 323.29 132.43 323.11 133.05C322.93 133.66 322.34 133.91 321.8 133.6Z" fill="white"/>
<path d="M332.78 145.41L321.63 138.97C321.09 138.66 320.8 137.91 320.98 137.29C321.16 136.68 321.75 136.43 322.29 136.74L333.44 143.18C333.98 143.49 334.27 144.24 334.09 144.86C333.91 145.47 333.32 145.72 332.78 145.41Z" fill="white"/>
<path d="M322.5 150.4L318.85 148.29C318.31 147.98 318.02 147.23 318.2 146.61C318.38 146 318.97 145.75 319.51 146.06L323.16 148.17C323.7 148.48 323.99 149.23 323.81 149.85C323.63 150.46 323.04 150.71 322.5 150.4Z" fill="white"/>
<path d="M341.26 183.1L331.52 177.47C330.98 177.16 330.69 176.41 330.87 175.79C331.05 175.18 331.64 174.93 332.18 175.24L341.92 180.87C342.46 181.18 342.75 181.93 342.57 182.55C342.39 183.16 341.8 183.41 341.26 183.1Z" fill="white"/>
<path d="M318.41 158.98L316.07 157.63C315.53 157.32 315.24 156.57 315.42 155.95C315.6 155.34 316.19 155.09 316.73 155.4L319.07 156.75C319.61 157.06 319.9 157.81 319.72 158.43C319.54 159.04 318.95 159.29 318.41 158.98Z" fill="white"/>
<path d="M316.19 168.63L313.28 166.95C312.74 166.64 312.45 165.89 312.63 165.27C312.81 164.66 313.4 164.41 313.94 164.72L316.85 166.4C317.39 166.71 317.68 167.46 317.5 168.08C317.32 168.69 316.73 168.94 316.19 168.63Z" fill="white"/>
<path d="M327.51 175.16L319.84 170.73C319.3 170.42 319.01 169.67 319.19 169.05C319.37 168.44 319.96 168.19 320.5 168.5L328.17 172.93C328.71 173.24 329 173.99 328.82 174.61C328.64 175.22 328.05 175.47 327.51 175.16Z" fill="white"/>
<path d="M317.41 174.8L311.9 171.62C311.36 171.31 311.07 170.56 311.25 169.94C311.43 169.33 312.02 169.08 312.56 169.39L318.07 172.57C318.61 172.88 318.9 173.63 318.72 174.25C318.54 174.86 317.95 175.11 317.41 174.8Z" fill="white"/>
<path d="M349.62 187.95L346.08 185.91C345.54 185.6 345.25 184.85 345.43 184.23C345.61 183.62 346.2 183.37 346.74 183.68L350.28 185.72C350.82 186.03 351.11 186.78 350.93 187.4C350.75 188.01 350.16 188.26 349.62 187.95Z" fill="white"/>
<path d="M336.07 158.24L326.33 152.61C325.79 152.3 325.5 151.55 325.68 150.93C325.86 150.32 326.45 150.07 326.99 150.38L336.73 156.01C337.27 156.32 337.56 157.07 337.38 157.69C337.2 158.3 336.61 158.55 336.07 158.24Z" fill="white"/>
<path d="M337.22 153.44L320.24 143.64C319.7 143.33 319.41 142.58 319.59 141.96C319.77 141.35 320.36 141.1 320.9 141.41L337.88 151.21C338.42 151.52 338.71 152.27 338.53 152.89C338.35 153.5 337.76 153.75 337.22 153.44Z" fill="#E8975B"/>
<path d="M327.2 158.59L317.46 152.96C316.92 152.65 316.63 151.9 316.81 151.28C316.99 150.67 317.58 150.42 318.12 150.73L327.86 156.36C328.4 156.67 328.69 157.42 328.51 158.04C328.33 158.65 327.74 158.9 327.2 158.59Z" fill="#E8975B"/>
<path d="M343.46 162.51L339.92 160.47C339.38 160.16 339.09 159.41 339.27 158.79C339.45 158.18 340.04 157.93 340.58 158.24L344.12 160.28C344.66 160.59 344.95 161.34 344.77 161.96C344.59 162.57 344 162.82 343.46 162.51Z" fill="#E8975B"/>
<path d="M379.47 161.43L358.51 149.33C357.97 149.02 357.68 148.27 357.86 147.65C358.04 147.04 358.63 146.79 359.17 147.1L380.13 159.2C380.67 159.51 380.96 160.26 380.78 160.88C380.6 161.49 380.01 161.74 379.47 161.43Z" fill="#E8975B"/>
<path d="M326.39 169.05L314.68 162.29C314.14 161.98 313.85 161.23 314.03 160.61C314.21 160 314.8 159.75 315.34 160.06L327.05 166.82C327.59 167.13 327.88 167.88 327.7 168.5C327.52 169.11 326.93 169.36 326.39 169.05Z" fill="#F8359E"/>
<path d="M328.16 131.8L319.55 126.83C319.01 126.52 318.72 125.77 318.9 125.15C319.08 124.54 319.67 124.29 320.21 124.6L328.82 129.57C329.36 129.88 329.65 130.63 329.47 131.25C329.29 131.86 328.7 132.11 328.16 131.8Z" fill="#F8359E"/>
<path d="M315.61 179.22L305.64 173.46C305.1 173.15 304.81 172.4 304.99 171.78C305.17 171.17 305.76 170.92 306.3 171.23L316.27 176.99C316.81 177.3 317.1 178.05 316.92 178.67C316.74 179.28 316.15 179.53 315.61 179.22Z" fill="#E8975B"/>
<path d="M381.82 150.65L377.55 148.19C377.15 147.96 376.94 147.41 377.08 146.96C377.21 146.51 377.64 146.33 378.04 146.56L382.31 149.02C382.71 149.25 382.92 149.8 382.78 150.25C382.65 150.7 382.22 150.88 381.82 150.65Z" fill="white"/>
<path d="M389.97 155.35L385.7 152.89C385.3 152.66 385.09 152.11 385.23 151.66C385.36 151.21 385.79 151.03 386.19 151.26L390.46 153.72C390.86 153.95 391.07 154.5 390.93 154.95C390.8 155.4 390.37 155.58 389.97 155.35Z" fill="white"/>
<path d="M398.11 160.05L393.84 157.59C393.44 157.36 393.23 156.81 393.37 156.36C393.5 155.91 393.93 155.73 394.33 155.96L398.6 158.42C399 158.65 399.21 159.2 399.07 159.65C398.94 160.1 398.51 160.28 398.11 160.05Z" fill="white"/>
<path d="M402.11 162.36L401.98 162.28C401.58 162.05 401.37 161.5 401.51 161.05C401.64 160.6 402.07 160.42 402.47 160.65L402.6 160.73C403 160.96 403.21 161.51 403.07 161.96C402.94 162.41 402.51 162.59 402.11 162.36Z" fill="#F8359E"/>
<path d="M181.8 212.32C179.1 212.32 176.4 211.62 173.99 210.23L145.4 193.72C144.16 193 143.42 191.72 143.42 190.29C143.42 188.86 144.16 187.58 145.4 186.86L173.99 170.35C178.81 167.57 184.8 167.57 189.62 170.35L218.21 186.86C219.45 187.58 220.19 188.86 220.19 190.29C220.19 191.72 219.45 193 218.21 193.72L189.62 210.23C187.21 211.62 184.51 212.32 181.81 212.32H181.8ZM174.92 208.62C179.17 211.07 184.44 211.07 188.69 208.62L217.28 192.11C217.94 191.73 218.33 191.05 218.33 190.29C218.33 189.53 217.94 188.85 217.28 188.47L188.69 171.96C184.44 169.51 179.17 169.51 174.92 171.96L146.33 188.47C145.67 188.85 145.28 189.53 145.28 190.29C145.28 191.05 145.67 191.73 146.33 192.11L174.92 208.62Z" fill="url(#paint10_linear_7_2280)"/>
<path opacity="0.6" d="M195.54 198.7C187.87 203.13 175.43 203.13 167.76 198.7C160.09 194.27 160.09 187.09 167.76 182.66C175.43 178.23 187.87 178.23 195.54 182.66C203.21 187.09 203.21 194.27 195.54 198.7Z" fill="#020230"/>
<path d="M210.77 109.86H154.83L160.03 170.43C160.03 173.79 162.25 177.16 166.7 179.72C175.59 184.85 190.01 184.85 198.9 179.72C203.35 177.15 205.57 173.79 205.57 170.42L210.77 109.85V109.86Z" fill="url(#paint11_radial_7_2280)"/>
<path opacity="0.4" d="M210.77 109.86H154.83L155.69 119.82C156.97 121.46 158.7 123.04 160.87 124.48C171.56 131.57 189.2 132.94 201.23 127.83L199.37 172.13C199.29 174.06 198.62 175.94 197.37 177.41C195.56 179.54 192.07 182.05 185.36 183.47C190.31 183.15 195.11 181.9 198.9 179.71C203.35 177.14 205.57 173.78 205.57 170.41L209.74 121.84L210.77 109.85V109.86Z" fill="#06033E"/>
<path opacity="0.4" d="M182.8 126.01C198.247 126.01 210.77 118.779 210.77 109.86C210.77 100.941 198.247 93.71 182.8 93.71C167.352 93.71 154.83 100.941 154.83 109.86C154.83 118.779 167.352 126.01 182.8 126.01Z" fill="#06033E"/>
<path opacity="0.4" d="M182.8 118.08C196.104 118.08 206.89 111.852 206.89 104.17C206.89 96.4877 196.104 90.26 182.8 90.26C169.495 90.26 158.71 96.4877 158.71 104.17C158.71 111.852 169.495 118.08 182.8 118.08Z" fill="#06033E"/>
<path d="M212.42 109.1V109.05C212.42 109.02 212.42 108.99 212.42 108.97L211.88 103.55L211.86 103.61C211.62 99.5099 208.79 95.4399 203.37 92.3099C192.01 85.7499 173.6 85.7499 162.24 92.3099C156.68 95.5199 153.85 99.7099 153.73 103.92L153.22 108.73C153.21 108.86 153.19 108.98 153.18 109.11V109.19C152.87 113.79 155.76 118.45 161.84 121.96C173.42 128.65 192.2 128.65 203.78 121.96C209.9 118.43 212.79 113.73 212.44 109.1H212.42Z" fill="url(#paint12_linear_7_2280)"/>
<path d="M182.8 118.08C196.104 118.08 206.89 111.852 206.89 104.17C206.89 96.4877 196.104 90.26 182.8 90.26C169.495 90.26 158.71 96.4877 158.71 104.17C158.71 111.852 169.495 118.08 182.8 118.08Z" fill="url(#paint13_linear_7_2280)"/>
<path d="M181.65 118.08C194.954 118.08 205.74 111.852 205.74 104.17C205.74 96.4877 194.954 90.26 181.65 90.26C168.345 90.26 157.56 96.4877 157.56 104.17C157.56 111.852 168.345 118.08 181.65 118.08Z" fill="url(#paint14_linear_7_2280)"/>
<path opacity="0.4" d="M168.62 96.4098C178.03 90.9798 193.28 90.9798 202.69 96.4098C202.81 96.4798 202.91 96.5498 203.03 96.6298C202.12 95.8198 201.06 95.0498 199.84 94.3398C190.43 88.9098 175.18 88.9098 165.77 94.3398C156.48 99.6998 156.38 108.35 165.43 113.8C159.39 108.41 160.44 101.14 168.62 96.4198V96.4098Z" fill="#06033E"/>
<path d="M165.76 96.7498C175.17 91.3198 190.42 91.3198 199.83 96.7498C204 99.1598 206.32 102.23 206.79 105.38C207.38 101.43 205.06 97.3598 199.83 94.3398C190.42 88.9098 175.17 88.9098 165.76 94.3398C160.52 97.3598 158.21 101.43 158.8 105.38C159.27 102.23 161.59 99.1598 165.76 96.7498Z" fill="url(#paint15_linear_7_2280)"/>
<path d="M203.54 92.4399C192.2 85.7599 173.72 85.5999 162.26 92.0799C150.8 98.5599 150.71 109.23 162.05 115.91C173.39 122.59 191.87 122.75 203.33 116.27C214.79 109.79 214.88 99.1199 203.54 92.4399ZM199.83 114.01C196.69 115.82 192.89 117.02 188.88 117.62L188.44 116.18C188.26 115.6 187.73 115.2 187.12 115.2H178.47C177.86 115.2 177.33 115.6 177.15 116.18L176.71 117.62C172.7 117.02 168.9 115.82 165.76 114.01C156.35 108.58 156.35 99.7699 165.76 94.3399C175.17 88.9099 190.42 88.9099 199.83 94.3399C209.24 99.7699 209.24 108.58 199.83 114.01Z" fill="url(#paint16_radial_7_2280)"/>
<path d="M199.83 93.3098C190.42 87.8798 175.17 87.8798 165.76 93.3098C160.83 96.1598 158.49 99.9298 158.73 103.66C158.95 100.27 161.29 96.9198 165.76 94.3398C175.17 88.9098 190.42 88.9098 199.83 94.3398C204.31 96.9298 206.65 100.27 206.87 103.66C207.11 99.9298 204.77 96.1598 199.83 93.3098Z" fill="white"/>
<path d="M203.33 115.24C191.87 121.72 173.39 121.56 162.05 114.88C156.65 111.7 153.85 107.62 153.63 103.51C153.41 107.96 156.21 112.46 162.05 115.91C173.39 122.59 191.87 122.75 203.33 116.27C209.33 112.87 212.21 108.33 211.96 103.81C211.75 107.98 208.88 112.11 203.33 115.24Z" fill="white"/>
<path d="M185.39 116.97H180.21C179.851 116.97 179.56 117.261 179.56 117.62V117.72C179.56 118.079 179.851 118.37 180.21 118.37H185.39C185.749 118.37 186.04 118.079 186.04 117.72V117.62C186.04 117.261 185.749 116.97 185.39 116.97Z" fill="#0C0A78"/>
<path d="M185.38 116.97H180.21C179.85 116.97 179.56 117.26 179.56 117.62V117.71C179.56 117.77 179.58 117.83 179.6 117.88C179.68 117.61 179.92 117.4 180.22 117.4H185.39C185.69 117.4 185.93 117.6 186.01 117.88C186.03 117.82 186.05 117.77 186.05 117.71V117.62C186.05 117.26 185.76 116.97 185.4 116.97H185.38Z" fill="url(#paint17_linear_7_2280)"/>
<path d="M183.59 164.21C182.96 166.6 180.51 168.01 178.12 167.38C175.73 166.75 174.32 164.3 174.95 161.91C175.58 159.52 177.83 158.85 180.22 159.48C182.61 160.11 184.22 161.82 183.59 164.2V164.21Z" fill="#E8975B"/>
<path d="M187.11 159.5C186.21 160.38 185.06 160.27 184.3 159.48C183.54 158.7 183.45 157.55 184.35 156.67C185.25 155.79 186.96 155.36 187.72 156.14C188.48 156.92 188.01 158.62 187.11 159.5Z" fill="#E8975B"/>
<path d="M182.43 155.76C182.21 157 181.21 157.58 180.13 157.38C179.05 157.19 178.31 156.3 178.53 155.06C178.75 153.82 179.89 152.47 180.97 152.67C182.05 152.86 182.65 154.52 182.43 155.76Z" fill="#E8975B"/>
<path d="M176.67 155.19C177.15 156.35 176.61 157.38 175.6 157.79C174.59 158.21 173.49 157.86 173.01 156.69C172.53 155.53 172.77 153.78 173.78 153.36C174.79 152.94 176.19 154.02 176.67 155.18V155.19Z" fill="#E8975B"/>
<path opacity="0.5" d="M184.63 117.67C184.63 117.67 200.27 112.43 193.94 94.4599C187.61 76.4899 175.28 71.0099 180.24 56.6399C180.24 56.6399 172.46 68.2799 179.73 84.0199C187 99.7599 188.6 97.9599 188.51 105.49C188.41 114.44 181.18 117.67 181.18 117.67H184.62H184.63Z" fill="white"/>
<path opacity="0.5" d="M186.03 59.1301C186.03 59.1301 184.4 48.38 194.49 37.55C194.49 37.55 185.57 57.4701 188.49 67.3001C188.49 67.3001 186.13 61.0501 186.03 59.1301Z" fill="white"/>
<defs>
<linearGradient id="paint0_linear_7_2280" x1="481.06" y1="306.92" x2="513.67" y2="306.92" gradientUnits="userSpaceOnUse">
<stop stop-color="#E39A65"/>
<stop offset="1" stop-color="#E95F8D"/>
</linearGradient>
<linearGradient id="paint1_linear_7_2280" x1="436.41" y1="262.22" x2="491.19" y2="262.22" gradientUnits="userSpaceOnUse">
<stop stop-color="#E39A65"/>
<stop offset="1" stop-color="#E95F8D"/>
</linearGradient>
<linearGradient id="paint2_linear_7_2280" x1="75.1799" y1="280.58" x2="129.96" y2="280.58" gradientUnits="userSpaceOnUse">
<stop stop-color="#E39A65"/>
<stop offset="1" stop-color="#E95F8D"/>
</linearGradient>
<linearGradient id="paint3_linear_7_2280" x1="138.96" y1="277.06" x2="431.32" y2="277.06" gradientUnits="userSpaceOnUse">
<stop stop-color="#E39A65"/>
<stop offset="1" stop-color="#E95F8D"/>
</linearGradient>
<radialGradient id="paint4_radial_7_2280" cx="0" cy="0" r="1" gradientUnits="userSpaceOnUse" gradientTransform="translate(300.45 60.61) scale(223.3 223.3)">
<stop stop-color="#E39A65"/>
<stop offset="0.47" stop-color="#A92FFB"/>
<stop offset="0.59" stop-color="#881BFA"/>
<stop offset="0.74" stop-color="#6507FA"/>
<stop offset="0.8" stop-color="#0D0C6F"/>
</radialGradient>
<radialGradient id="paint5_radial_7_2280" cx="0" cy="0" r="1" gradientUnits="userSpaceOnUse" gradientTransform="translate(163.87 239.93) scale(244.17 244.17)">
<stop stop-color="#E39A65"/>
<stop offset="0.47" stop-color="#A92FFB"/>
<stop offset="0.57" stop-color="#881BFA"/>
<stop offset="0.68" stop-color="#6507FA"/>
<stop offset="0.74" stop-color="#0D0C6F"/>
</radialGradient>
<radialGradient id="paint6_radial_7_2280" cx="0" cy="0" r="1" gradientUnits="userSpaceOnUse" gradientTransform="translate(186.33 190.92) scale(218.96 218.96)">
<stop stop-color="#E39A65"/>
<stop offset="0.47" stop-color="#A92FFB"/>
<stop offset="0.59" stop-color="#881BFA"/>
<stop offset="0.73" stop-color="#6507FA"/>
<stop offset="1" stop-color="#3919BB"/>
</radialGradient>
<radialGradient id="paint7_radial_7_2280" cx="0" cy="0" r="1" gradientUnits="userSpaceOnUse" gradientTransform="translate(240.88 107.18) scale(223.34 223.34)">
<stop stop-color="#E39A65"/>
<stop offset="0.47" stop-color="#A92FFB"/>
<stop offset="0.59" stop-color="#881BFA"/>
<stop offset="0.73" stop-color="#6507FA"/>
<stop offset="1" stop-color="#3919BB"/>
</radialGradient>
<linearGradient id="paint8_linear_7_2280" x1="265.43" y1="165.81" x2="444.39" y2="165.81" gradientUnits="userSpaceOnUse">
<stop stop-color="#3919BB"/>
<stop offset="1" stop-color="#6507FA"/>
</linearGradient>
<radialGradient id="paint9_radial_7_2280" cx="0" cy="0" r="1" gradientUnits="userSpaceOnUse" gradientTransform="translate(159.35 59.4899) scale(347.85 347.85)">
<stop stop-color="#E39A65"/>
<stop offset="0.47" stop-color="#A92FFB"/>
<stop offset="0.59" stop-color="#881BFA"/>
<stop offset="0.73" stop-color="#6507FA"/>
<stop offset="1" stop-color="#3919BB"/>
</radialGradient>
<linearGradient id="paint10_linear_7_2280" x1="143.41" y1="190.29" x2="220.18" y2="190.29" gradientUnits="userSpaceOnUse">
<stop stop-color="#E39A65"/>
<stop offset="1" stop-color="#E95F8D"/>
</linearGradient>
<radialGradient id="paint11_radial_7_2280" cx="0" cy="0" r="1" gradientUnits="userSpaceOnUse" gradientTransform="translate(150.22 127.67) scale(165.35 165.35)">
<stop stop-color="#E39A65"/>
<stop offset="0.15" stop-color="#A92FFB"/>
<stop offset="0.41" stop-color="#3919BB"/>
<stop offset="0.93" stop-color="#3919BB"/>
</radialGradient>
<linearGradient id="paint12_linear_7_2280" x1="153.14" y1="107.18" x2="212.45" y2="107.18" gradientUnits="userSpaceOnUse">
<stop stop-color="#E39A65"/>
<stop offset="0.25" stop-color="#A92FFB"/>
<stop offset="0.56" stop-color="#3919BB"/>
</linearGradient>
<linearGradient id="paint13_linear_7_2280" x1="158.7" y1="104.17" x2="206.89" y2="104.17" gradientUnits="userSpaceOnUse">
<stop stop-color="#4F1FEC"/>
<stop offset="1" stop-color="#A92FFB"/>
</linearGradient>
<linearGradient id="paint14_linear_7_2280" x1="157.56" y1="1.57085e-05" x2="205.74" y2="1.57085e-05" gradientUnits="userSpaceOnUse">
<stop stop-color="#4F1FEC"/>
<stop offset="1" stop-color="#A92FFB"/>
</linearGradient>
<linearGradient id="paint15_linear_7_2280" x1="158.71" y1="97.8198" x2="219.46" y2="97.8198" gradientUnits="userSpaceOnUse">
<stop stop-color="#131060"/>
<stop offset="0.19" stop-color="#140F62"/>
<stop offset="0.28" stop-color="#190F6A"/>
<stop offset="0.36" stop-color="#220F77"/>
<stop offset="0.42" stop-color="#2E0F8A"/>
<stop offset="0.48" stop-color="#3D0EA3"/>
<stop offset="0.54" stop-color="#510EC1"/>
<stop offset="0.58" stop-color="#670DE5"/>
<stop offset="0.61" stop-color="#740DF8"/>
<stop offset="0.62" stop-color="#7A14EF"/>
<stop offset="0.68" stop-color="#9B3BC2"/>
<stop offset="0.75" stop-color="#B75C9D"/>
<stop offset="0.81" stop-color="#CC7680"/>
<stop offset="0.88" stop-color="#DB886B"/>
<stop offset="0.94" stop-color="#E4935F"/>
<stop offset="1" stop-color="#E8975B"/>
</linearGradient>
<radialGradient id="paint16_radial_7_2280" cx="0" cy="0" r="1" gradientUnits="userSpaceOnUse" gradientTransform="translate(145.74 90.3999) scale(108.16 108.16)">
<stop stop-color="#E39A65"/>
<stop offset="0.25" stop-color="#A92FFB"/>
<stop offset="0.74" stop-color="#3919BB"/>
</radialGradient>
<linearGradient id="paint17_linear_7_2280" x1="178.98" y1="117.43" x2="187.39" y2="117.43" gradientUnits="userSpaceOnUse">
<stop stop-color="#131060"/>
<stop offset="0.19" stop-color="#140F62"/>
<stop offset="0.28" stop-color="#190F6A"/>
<stop offset="0.36" stop-color="#220F77"/>
<stop offset="0.42" stop-color="#2E0F8A"/>
<stop offset="0.48" stop-color="#3D0EA3"/>
<stop offset="0.54" stop-color="#510EC1"/>
<stop offset="0.58" stop-color="#670DE5"/>
<stop offset="0.61" stop-color="#740DF8"/>
<stop offset="0.62" stop-color="#7A14EF"/>
<stop offset="0.68" stop-color="#9B3BC2"/>
<stop offset="0.75" stop-color="#B75C9D"/>
<stop offset="0.81" stop-color="#CC7680"/>
<stop offset="0.88" stop-color="#DB886B"/>
<stop offset="0.94" stop-color="#E4935F"/>
<stop offset="1" stop-color="#E8975B"/>
</linearGradient>
</defs>
</svg>
